<svg xmlns="http://www.w3.org/2000/svg" width="88.144" height="77.694" viewBox="0 0 88.144 77.694">
    <g data-name="Group 1418">
        <path data-name="Path 12503" d="M199.906 156.233a17.742 17.742 0 0 1 10.724-.729c2.632.759 7.027 7.374 5.773 15.241-.54 3.386 1.873 6.893 5.106 8.917 1.532.959 3.5.806 5.231 1.043 3.841.525 7.671 3.271 8.116 7.122.43 3.72-2.52 8.1-4.768 10.854-5.789 7.1-16.06 10.94-24.863 7.08-4.268-1.872-7.993-5.833-10.976-9.332-3.126-3.668-4.535-8.574-4.77-13.319-.291-5.883 1.038-11.682 2.5-17.339 1.121-4.321 3.549-7.989 7.927-9.538z" transform="translate(-155.571 -134.447)" style="isolation:isolate;opacity:.15;mix-blend-mode:multiply;fill:#e69784"/>
        <path data-name="Path 12504" d="M99.309 303.266a9.959 9.959 0 0 0-1.708-3.5A10.779 10.779 0 0 0 92.994 297a19.521 19.521 0 0 0-4.847-1.325 11.21 11.21 0 0 0-10.815 5.8c-.665 1.269-1.035 2.934-.143 4.055a4.506 4.506 0 0 0 1.518 1.082l5.6 2.915c1.95 1.015 4.163 2.424 4.247 4.62.082 2.141-1.251 4 .749 5.735a6.953 6.953 0 0 0 5.556 1.165c3.789-.9 5.363-6.061 5.635-9.431a22.055 22.055 0 0 0-1.185-8.35z" transform="translate(-65.459 -246.828)" style="isolation:isolate;opacity:.15;mix-blend-mode:multiply;fill:#e69784"/>
        <path data-name="Path 12505" d="M76.878 116.558c1.4-3.912.066-11.975-3.571-14.376a5.555 5.555 0 0 0-5.249-.563 15.741 15.741 0 0 0-4.8 2.653 11.6 11.6 0 0 0-2.777 3.824c-1.338 2.672-2.475 6.094-5.461 7.354-1.146.484-2.454.564-3.523 1.2-2.4 1.43-2.385 5.267-.456 7.11 1.657 1.584 4.363 2.094 6.558 2.061 7.881-.121 16.687-2.014 19.279-9.263z" transform="translate(-43.869 -91.493)" style="isolation:isolate;opacity:.15;mix-blend-mode:multiply;fill:#e69784"/>
        <path data-name="Path 12506" d="M339.211 164.763c4.094.708 11.809-1.986 13.552-5.98a5.555 5.555 0 0 0-.344-5.268 15.744 15.744 0 0 0-3.436-4.276 11.6 11.6 0 0 0-4.243-2.081c-2.862-.86-6.428-1.395-8.18-4.12-.673-1.046-.976-2.321-1.786-3.265-1.82-2.12-5.6-1.447-7.083.769-1.276 1.9-1.316 4.658-.907 6.815 1.468 7.743 4.841 16.094 12.427 17.406z" transform="translate(-265.127 -121.276)" style="isolation:isolate;opacity:.15;mix-blend-mode:multiply;fill:#e69784"/>
        <g data-name="Group 1387">
            <path data-name="Path 12507" d="M145.117 367.208c.609 0 .681 0 .921.013a1.261 1.261 0 0 1 .423.078.754.754 0 0 1 .433.433 1.261 1.261 0 0 1 .079.423c.011.24.013.313.013.921s0 .681-.013.921a1.259 1.259 0 0 1-.079.423.753.753 0 0 1-.433.433 1.255 1.255 0 0 1-.423.079c-.24.011-.313.013-.921.013s-.681 0-.921-.013a1.256 1.256 0 0 1-.423-.079.755.755 0 0 1-.433-.433 1.264 1.264 0 0 1-.079-.423c-.011-.24-.013-.312-.013-.921s0-.681.013-.921a1.267 1.267 0 0 1 .079-.423.756.756 0 0 1 .433-.433 1.262 1.262 0 0 1 .423-.078c.24-.011.313-.013.921-.013m0-.411c-.619 0-.7 0-.94.014a1.673 1.673 0 0 0-.553.106 1.166 1.166 0 0 0-.667.667 1.677 1.677 0 0 0-.106.554c-.011.243-.014.321-.014.94s0 .7.014.94a1.677 1.677 0 0 0 .106.554 1.166 1.166 0 0 0 .667.667 1.674 1.674 0 0 0 .553.106c.243.011.321.014.94.014s.7 0 .94-.014a1.677 1.677 0 0 0 .554-.106 1.166 1.166 0 0 0 .667-.667 1.67 1.67 0 0 0 .106-.554c.011-.243.014-.321.014-.94s0-.7-.014-.94a1.67 1.67 0 0 0-.106-.554 1.166 1.166 0 0 0-.667-.667 1.675 1.675 0 0 0-.554-.106 16.157 16.157 0 0 0-.94-.014" transform="translate(-118.335 -303.701)" style="fill:#e69784"/>
            <path data-name="Path 12508" d="M150.086 373.017a1.03 1.03 0 1 0 1.03 1.03 1.03 1.03 0 0 0-1.03-1.03m0 1.7a.669.669 0 1 1 .668-.669.669.669 0 0 1-.668.669" transform="translate(-123.304 -308.671)" style="fill:#e69784"/>
            <path data-name="Path 12509" d="M158.492 370.7a.274.274 0 1 1-.274-.274.274.274 0 0 1 .274.274" transform="translate(-130.407 -306.6)" style="fill:#e69784"/>
        </g>
        <path data-name="Path 12510" d="M336.4 200.525c-4.559.078-4.559 6.86 0 6.937 4.564-.077 4.563-6.862 0-6.937zm0 .6a2.849 2.849 0 0 1 1.747.6 3.506 3.506 0 0 1-1.441 1.064 13.353 13.353 0 0 0-1.008-1.572 2.843 2.843 0 0 1 .702-.089zm-1.293.312a12.9 12.9 0 0 1 1.026 1.563 9.2 9.2 0 0 1-2.51.32 2.873 2.873 0 0 1 1.488-1.88zm-1.573 2.554v-.074a9.684 9.684 0 0 0 2.876-.382q.1.206.194.414a4.464 4.464 0 0 0-2.41 1.873 2.852 2.852 0 0 1-.656-1.828zm2.865 2.866a2.848 2.848 0 0 1-1.758-.608 3.894 3.894 0 0 1 2.2-1.742 11.331 11.331 0 0 1 .591 2.156 2.845 2.845 0 0 1-1.032.196zm1.591-.484a11.91 11.91 0 0 0-.555-1.994 5.764 5.764 0 0 1 1.792.057 2.866 2.866 0 0 1-1.233 1.94zm-.786-2.564a13.221 13.221 0 0 0-.222-.486 4.1 4.1 0 0 0 1.6-1.18 2.854 2.854 0 0 1 .671 1.686 6.2 6.2 0 0 0-2.045-.018z" transform="translate(-270.266 -170.846)" style="fill:#e69784"/>
        <path data-name="Path 12511" d="M190.83 171.1a1.153 1.153 0 0 0 1.073-1.135.984.984 0 0 0-1.551-.574c-.552.548-.474 1.737.478 1.709z" transform="translate(-156.024 -145.806)" style="isolation:isolate;opacity:.15;mix-blend-mode:multiply;fill:#e69784"/>
        <path data-name="Path 12512" d="M398.922 148.542a3 3 0 0 0 2.794-2.956c-.04-1.736-2.854-2.668-4.038-1.5-1.45 1.442-1.235 4.539 1.244 4.456z" transform="translate(-321.237 -125.336)" style="isolation:isolate;opacity:.15;mix-blend-mode:multiply;fill:#e69784"/>
        <path data-name="Path 12513" d="M203.834 411.342a4.177 4.177 0 0 0 3.886-4.111c-.055-2.415-3.969-3.711-5.616-2.08-2.016 1.998-1.718 6.306 1.73 6.191z" transform="translate(-164.687 -333.765)" style="isolation:isolate;opacity:.15;mix-blend-mode:multiply;fill:#e69784"/>
        <g data-name="Group 1388">
            <path data-name="Path 12514" d="M192.459 83.636a2.913 2.913 0 0 0 2.272-3.226c-.28-1.662-3.111-2.165-4.084-.875-1.193 1.581-.557 4.525 1.812 4.101z" transform="translate(-156.067 -73.59)" style="fill:#6676de"/>
            <path data-name="Path 12515" d="m198.772 88.85-.324.354a.13.13 0 1 0 .192.176l.341-.373.4.3a.13.13 0 1 0 .157-.208l-.383-.288.324-.354a.131.131 0 0 0-.109-.218.128.128 0 0 0-.084.042l-.341.373-.4-.3a.13.13 0 1 0-.157.208z" transform="translate(-162.68 -81.129)" style="fill:#fff"/>
        </g>
        <path data-name="Path 12516" d="M366.444 290.159q4.242-3.592 8.567-7.085" transform="translate(-297.001 -236.804)" style="stroke-miterlimit:10;stroke:#6676de;fill:none"/>
        <path data-name="Path 12517" d="m415.737 291.923-3.137 18.758" transform="translate(-333.884 -243.875)" style="stroke-miterlimit:10;stroke:#6676de;fill:none"/>
        <path data-name="Path 12518" d="M353.654 397.031c.486 0 4.661 1.486 4.661 1.486" transform="translate(-286.782 -327.858)" style="stroke-miterlimit:10;stroke:#6676de;fill:none"/>
        <path data-name="Line 1" transform="translate(6.366 40.005)" style="stroke-miterlimit:10;stroke:#6676de;fill:none" d="M4.334 11.958 0 0"/>
        <g data-name="Group 1389">
            <path data-name="Path 12519" d="M82.933 160.343a5.14 5.14 0 0 0 3.775-5.849c-.611-2.91-5.639-3.6-7.263-1.251-1.989 2.872-.658 8.016 3.488 7.1z" transform="translate(-66.958 -131.939)" style="fill:#6676de"/>
            <path data-name="Path 12520" d="M89.383 161.988a2.108 2.108 0 1 0 2.252 1.953 2.108 2.108 0 0 0-2.252-1.953zm1.183 2.969a.125.125 0 0 1-.176.055 2.414 2.414 0 0 0-1.865-.068.13.13 0 1 1-.081-.248 2.7 2.7 0 0 1 2.056.086.126.126 0 0 1 .066.175zm.211-.6a.159.159 0 0 1-.217.068 2.732 2.732 0 0 0-2.109-.093.16.16 0 1 1-.116-.3 3.083 3.083 0 0 1 2.386.116.149.149 0 0 1 .056.213zm-.021-.59a3.494 3.494 0 0 0-2.456-.067.193.193 0 1 1-.142-.36 3.911 3.911 0 0 1 2.775.088.2.2 0 0 1 .093.268.221.221 0 0 1-.27.075z" transform="translate(-74.059 -140.049)" style="fill:#fff"/>
        </g>
        <path data-name="Path 12521" d="M134.713 114.808s-1.811.012-2.217.013c-.228 0-.255-.363-.224-.457a.281.281 0 0 1 .085-.11c.321-.295 1.17-.906 1.2-.984.064-.144-.814-1.522-.73-2.342a1.81 1.81 0 0 1 1.881-1.636h-.118a1.81 1.81 0 0 1 1.88 1.636c.084.82-.794 2.2-.73 2.342.035.078.884.689 1.2.984a.281.281 0 0 1 .085.11c.032.095 0 .458-.224.457-.406 0-2.217-.013-2.217-.013z" transform="translate(-109.885 -97.946)" style="stroke-width:.906px;stroke-miterlimit:10;stroke:#6676de;fill:none"/>
        <path data-name="Path 12522" d="M398.637 196.415s-2 .013-2.447.014c-.251 0-.282-.4-.247-.505a.31.31 0 0 1 .094-.122c.355-.325 1.292-1 1.33-1.086.071-.158-.9-1.68-.805-2.585a2 2 0 0 1 2.076-1.806h-.13a2 2 0 0 1 2.076 1.806c.092.9-.876 2.426-.806 2.585.039.087.975.761 1.33 1.086a.311.311 0 0 1 .094.122c.035.1 0 .505-.247.505-.448 0-2.447-.014-2.447-.014z" transform="translate(-320.562 -162.693)" style="stroke-miterlimit:10;stroke:#6676de;fill:none"/>
        <path data-name="Path 12523" d="M354.87 274.127c-.2.01-.221-.319-.237-.412l-.1-.573c-.026-.151-.03-.313-.18-.4-.245-.135-.657-.068-.7-.26-.05-.237.439-.211.565-.207s.363 0 .393-.142a1.512 1.512 0 0 0 0-.34 6.117 6.117 0 0 1 .041-.725c.029-.21.13-.425.213-.426s.21.193.242.459c.023.194.042.913.069 1.033.03.138.213.146.336.142s.615-.03.565.207c-.041.192-.453.124-.7.26-.151.083-.155.245-.18.4l-.1.573c-.016.092-.042.422-.237.412" transform="translate(-286.782 -226.873)" style="stroke-miterlimit:10;stroke:#6676de;fill:none"/>
        <path data-name="Path 12524" d="M400.69 159.429c-.2.01-.221-.319-.237-.412l-.1-.573c-.025-.151-.03-.313-.18-.4-.245-.135-.657-.067-.7-.259-.05-.237.439-.211.565-.207s.363 0 .393-.142a1.514 1.514 0 0 0 0-.34 6.078 6.078 0 0 1 .041-.725c.029-.21.129-.425.213-.426s.21.193.242.458c.023.194.042.913.069 1.033.031.138.213.146.336.142s.615-.03.565.207c-.041.192-.453.124-.7.259-.151.083-.155.245-.18.4l-.1.573c-.015.093-.042.422-.237.412" transform="translate(-323.393 -135.227)" style="stroke-miterlimit:10;stroke:#6676de;fill:none"/>
        <path data-name="Path 12525" d="M149.008 161.166c-.2.01-.221-.319-.237-.412l-.1-.573c-.026-.151-.03-.313-.18-.4-.245-.135-.657-.068-.7-.26-.05-.237.439-.211.565-.207s.363 0 .393-.142a1.516 1.516 0 0 0 0-.34 6.111 6.111 0 0 1 .041-.725c.029-.21.13-.425.213-.426s.21.193.242.459c.023.194.042.913.069 1.033.03.138.212.146.336.142s.615-.03.565.207c-.041.192-.453.125-.7.26-.151.083-.155.245-.18.4l-.1.573c-.016.092-.042.422-.237.412" transform="translate(-122.294 -136.615)" style="stroke-miterlimit:10;stroke:#6676de;fill:none"/>
        <path data-name="Path 12526" d="M75.45 116.673c-.2.01-.221-.319-.237-.412l-.1-.573c-.025-.151-.03-.313-.18-.4-.245-.135-.657-.067-.7-.259-.05-.237.439-.211.565-.207s.363 0 .393-.142a1.514 1.514 0 0 0 0-.34 6.072 6.072 0 0 1 .041-.725c.029-.21.13-.425.213-.426s.21.193.242.458c.023.194.042.913.069 1.033.031.138.213.146.336.142s.615-.03.565.207c-.041.192-.453.124-.7.259-.151.083-.155.245-.18.4l-.1.573c-.015.093-.042.422-.237.412" transform="translate(-63.52 -101.064)" style="stroke-miterlimit:10;stroke:#6676de;fill:none"/>
        <path data-name="Path 12527" d="M92.392 396.661c-.2.01-.221-.319-.237-.412l-.1-.574c-.026-.151-.03-.313-.18-.4-.245-.135-.657-.068-.7-.26-.05-.237.439-.211.565-.207s.363 0 .393-.142a1.514 1.514 0 0 0 0-.34 6.117 6.117 0 0 1 .041-.725c.029-.21.13-.425.213-.426s.21.193.242.459c.023.194.042.913.069 1.033.03.138.212.146.336.142s.615-.03.565.207c-.041.192-.453.125-.7.26-.151.083-.155.245-.18.4l-.1.574c-.016.092-.042.422-.237.412" transform="translate(-77.057 -324.78)" style="stroke-miterlimit:10;stroke:#6676de;fill:none"/>
        <g data-name="Group 1392">
            <g data-name="Group 1390">
                <path data-name="Path 12528" d="M421.383 252.8a2.9 2.9 0 0 0-5.795-.053v.126a2.855 2.855 0 0 0 .415 1.486l-.523 1.543 1.606-.51a2.9 2.9 0 0 0 4.3-2.519l-.003-.073zm-2.9 2.492a2.428 2.428 0 0 1-1.341-.4l-.937.3.3-.9a2.4 2.4 0 0 1-.464-1.419 2.285 2.285 0 0 1 .012-.235 2.439 2.439 0 0 1 4.855.046c.005.063.008.125.008.189a2.431 2.431 0 0 1-2.431 2.419z" transform="translate(-336.18 -210.374)" style="fill-rule:evenodd;fill:#6676de"/>
                <path data-name="Path 12529" d="M426.144 259.671c-.072-.035-.421-.206-.486-.229s-.113-.035-.16.035-.185.229-.225.276-.083.053-.155.018a1.927 1.927 0 0 1-.572-.35 2.108 2.108 0 0 1-.395-.487c-.041-.071 0-.109.031-.144l.107-.123.026-.034a.784.784 0 0 0 .045-.084.127.127 0 0 0-.005-.123c-.018-.035-.16-.383-.22-.524s-.118-.117-.16-.117-.088-.007-.136-.007a.263.263 0 0 0-.19.088.79.79 0 0 0-.248.589.9.9 0 0 0 .037.24 1.6 1.6 0 0 0 .254.489 2.919 2.919 0 0 0 1.214 1.066c.724.281.724.187.854.175a.71.71 0 0 0 .479-.335.583.583 0 0 0 .042-.335c-.019-.031-.066-.049-.137-.084z" transform="translate(-342.511 -216.591)" style="fill-rule:evenodd;fill:#6676de"/>
            </g>
            <g data-name="Group 1391">
                <path data-name="Path 12530" d="M409.335 241c-1.105.544-2.948 2.294-2.948 4.347 0 3.979 4.445 6.564 7.742 3.719 1.351-1.166 2.269-3.5 1.588-5.145-1.112-2.697-3.955-4.121-6.382-2.921z" transform="translate(-328.916 -202.842)" style="stroke-miterlimit:10;stroke:#6676de;fill:none"/>
                <path data-name="Path 12531" d="M413.18 250.227a2.61 2.61 0 0 0-.877 1.34" transform="translate(-333.643 -210.559)" style="stroke-miterlimit:10;stroke:#6676de;fill:none"/>
                <path data-name="Path 12532" d="m411.307 260.6-.025.6" transform="translate(-332.827 -218.848)" style="stroke-miterlimit:10;stroke:#6676de;fill:none"/>
                <path data-name="Path 12533" d="M440.212 262.506a4.827 4.827 0 0 1-2.46 3.965" transform="translate(-353.977 -220.37)" style="stroke-miterlimit:10;stroke:#6676de;fill:none"/>
            </g>
        </g>
        <g data-name="Group 1394">
            <path data-name="Path 12534" d="M86.39 333.67h1.088v-2.724h.759l.081-.912h-.84v-.52c0-.215.043-.3.251-.3h.589v-.947h-.753c-.81 0-1.175.357-1.175 1.039v.727h-.566v.924h.566z" transform="translate(-72.781 -272.915)" style="fill:#6676de"/>
            <g data-name="Group 1393">
                <path data-name="Path 12535" d="M71.191 317.911a5.374 5.374 0 0 0-2.948 4.347c0 3.979 4.445 6.564 7.742 3.719a5.178 5.178 0 0 0 1.391-5.585 4.5 4.5 0 0 0-6.185-2.481z" transform="translate(-58.733 -264.278)" style="stroke-miterlimit:10;stroke:#6676de;fill:none"/>
                <path data-name="Path 12536" d="M75.036 327.244a2.612 2.612 0 0 0-.877 1.34" transform="translate(-63.46 -272.097)" style="stroke-miterlimit:10;stroke:#6676de;fill:none"/>
                <path data-name="Path 12537" d="m73.164 337.618-.025.6" transform="translate(-62.645 -280.386)" style="stroke-miterlimit:10;stroke:#6676de;fill:none"/>
                <path data-name="Path 12538" d="M102.069 339.523a4.827 4.827 0 0 1-2.461 3.965" transform="translate(-83.794 -281.908)" style="stroke-miterlimit:10;stroke:#6676de;fill:none"/>
            </g>
        </g>
        <g data-name="Group 1396">
            <path data-name="Path 12539" d="M37.737 210.446a.107.107 0 0 0 .155-.077l.063-.249a.15.15 0 0 0-.045-.173.9.9 0 0 1-.2-.609 1.469 1.469 0 0 1 1.527-1.486 1.161 1.161 0 0 1 1.291 1.189c0 .894-.4 1.649-.983 1.649a.48.48 0 0 1-.49-.6 6.617 6.617 0 0 0 .274-1.1.415.415 0 0 0-.418-.466c-.332 0-.6.343-.6.8a1.193 1.193 0 0 0 .1.491l-.4 1.69a3.475 3.475 0 0 0-.011 1.184.041.041 0 0 0 .074.018 3.312 3.312 0 0 0 .56-1.015c.038-.138.218-.853.218-.853a.889.889 0 0 0 .758.386c1 0 1.674-.909 1.674-2.126a1.854 1.854 0 0 0-1.964-1.777 2.053 2.053 0 0 0-2.217 1.938 1.2 1.2 0 0 0 .634 1.186z" transform="translate(-33.85 -176.277)" style="fill:#6676de"/>
            <g data-name="Group 1395">
                <path data-name="Path 12540" d="M25.591 195.146a4.7 4.7 0 0 0-2.168 4.119 5.031 5.031 0 0 0 2.838 4.229 4.792 4.792 0 0 0 5.019-.685c1.351-1.166 2.269-3.5 1.588-5.146-1.527-3.692-5.252-4.002-7.277-2.517z" transform="translate(-22.915 -165.883)" style="stroke-miterlimit:10;stroke:#6676de;fill:none"/>
                <path data-name="Path 12541" d="M30.813 203.99a2.612 2.612 0 0 0-.877 1.34" transform="translate(-28.125 -173.614)" style="stroke-miterlimit:10;stroke:#6676de;fill:none"/>
                <path data-name="Path 12542" d="m28.941 214.364-.025.6" transform="translate(-27.31 -181.903)" style="stroke-miterlimit:10;stroke:#6676de;fill:none"/>
                <path data-name="Path 12543" d="M57.845 216.269a4.827 4.827 0 0 1-2.46 3.965" transform="translate(-48.459 -183.425)" style="stroke-miterlimit:10;stroke:#6676de;fill:none"/>
            </g>
        </g>
        <g data-name="Group 1399">
            <path data-name="Path 12544" d="M396.873 402.906a2.538 2.538 0 0 1-.684.186 1.176 1.176 0 0 0 .526-.653 2.426 2.426 0 0 1-.76.287 1.2 1.2 0 0 0-2.065.8 1.224 1.224 0 0 0 .035.268 3.387 3.387 0 0 1-2.459-1.226 1.158 1.158 0 0 0 .366 1.567 1.155 1.155 0 0 1-.539-.145v.016a1.111 1.111 0 0 0 .082.422 1.189 1.189 0 0 0 .876.725 1.174 1.174 0 0 1-.315.044 1.066 1.066 0 0 1-.224-.025 1.2 1.2 0 0 0 1.113.82 2.411 2.411 0 0 1-1.479.5c-.1 0-.189-.006-.287-.016a3.441 3.441 0 0 0 1.828.527 3.318 3.318 0 0 0 3.313-2.629 3.234 3.234 0 0 0 .079-.709v-.151a2.47 2.47 0 0 0 .593-.608z" transform="translate(-316.67 -332.111)" style="fill-rule:evenodd;fill:#6676de"/>
            <g data-name="Group 1398">
                <g data-name="Group 1397">
                    <path data-name="Path 12545" d="M382.352 389.572a4.7 4.7 0 0 0-2.168 4.119 5.031 5.031 0 0 0 2.838 4.229 4.792 4.792 0 0 0 5.019-.684c1.351-1.166 2.269-3.5 1.588-5.146-1.529-3.69-5.251-4.003-7.277-2.518z" transform="translate(-307.975 -321.233)" style="stroke-miterlimit:10;stroke:#6676de;fill:none"/>
                    <path data-name="Path 12546" d="M387.574 398.416a2.612 2.612 0 0 0-.877 1.34" transform="translate(-313.184 -328.964)" style="stroke-miterlimit:10;stroke:#6676de;fill:none"/>
                    <path data-name="Path 12547" d="m385.7 408.79-.025.6" transform="translate(-312.369 -337.253)" style="stroke-miterlimit:10;stroke:#6676de;fill:none"/>
                    <path data-name="Path 12548" d="M414.607 410.7a4.827 4.827 0 0 1-2.46 3.965" transform="translate(-333.519 -338.775)" style="stroke-miterlimit:10;stroke:#6676de;fill:none"/>
                </g>
            </g>
        </g>
        <path data-name="Path 12549" d="M360.624 136.1h1.951v-4.886h1.361l.145-1.636h-1.506v-.932c0-.386.078-.538.45-.538h1.056v-1.7h-1.351c-1.452 0-2.106.64-2.106 1.863v1.3h-1.015v1.656h1.015z" transform="translate(-291.54 -111.627)" style="fill:#6676de"/>
        <path data-name="Line 2" transform="translate(20.727 56.487)" style="stroke-miterlimit:10;stroke:#6676de;fill:none" d="M0 .448 6.209 0"/>
        <path data-name="Line 3" transform="translate(11.474 33.969)" style="stroke-miterlimit:10;stroke:#6676de;fill:none" d="m0 0 5.596 1.179"/>
        <g data-name="Group 1410">
            <path data-name="Path 12550" d="M134.467 212.158c4.574 3.67 11.656 7.691 12.356 8.328a3.4 3.4 0 0 1 1.561 3.017c-.133 2.03-1.768 5.3-5.725 9.11-4.971 4.791-8.99 9.235-12.16 8.17-2.762-.927-30.261-25.219-30.261-25.219a63.006 63.006 0 0 1-6.626-6.08 30.1 30.1 0 0 1-2.111-2.474c-1.34-1.9-1.013-2.989.228-4.139.5-.464.912.241 1.448-.182 4.542-3.576 9.094-7.16 13.966-10.272a3.648 3.648 0 0 1 1.827-.733 3.5 3.5 0 0 1 1.913.757c.94.627 5.709 4.8 11.581 9.45" transform="translate(-76.624 -163.782)" style="fill:#47549b"/>
            <path data-name="Path 12551" d="M134.607 212.158c4.574 3.67 11.634 7.716 12.356 8.328 2.391 2.027 2.762 4.706-4.164 12.127-4.19 4.489-9.572 9.168-12.16 8.17-2.718-1.05-30.261-25.219-30.261-25.219a63.005 63.005 0 0 1-6.626-6.08c-.627-.685-1.553-1.73-2.112-2.474-1.07-1.423-.992-2.38-.4-3.376 1.331-2.244 11.172-8.1 16.043-11.217a3.648 3.648 0 0 1 1.827-.733 3.5 3.5 0 0 1 1.913.757c.94.627 5.709 4.8 11.581 9.45" transform="translate(-76.764 -163.782)" style="stroke-width:.979px;stroke:#444c73;stroke-miterlimit:10;fill:none"/>
            <path data-name="Path 12552" d="M137.9 206.582c4.574 3.67 10.92 8.211 11.619 8.848a4.281 4.281 0 0 1 1.619 3.7c-.254 1.869-2.028 4.33-5.564 7.92-4.309 4.375-9.055 9.153-11.643 8.156-2.718-1.05-30.261-25.219-30.261-25.219a68.312 68.312 0 0 1-6.782-6.46 8.557 8.557 0 0 1-1.625-2.247 3.176 3.176 0 0 1-.055-2.694 4.785 4.785 0 0 1 1.4-1.473c4.542-3.576 9.094-7.16 13.966-10.272a3.646 3.646 0 0 1 1.827-.733 3.5 3.5 0 0 1 1.913.757c.94.627 5.777 5.207 11.648 9.853" transform="translate(-80.062 -159.327)" style="fill:#6676de"/>
            <path data-name="Path 12553" d="M134.78 235.208c-2.718-1.05-30.262-25.219-30.262-25.219a68.358 68.358 0 0 1-6.782-6.46 8.561 8.561 0 0 1-1.625-2.247 3.176 3.176 0 0 1-.055-2.694 4.781 4.781 0 0 1 1.4-1.473c4.542-3.576 9.094-7.16 13.966-10.272a4.544 4.544 0 0 1 1.437-.684 2.014 2.014 0 0 0-.454-.049 3.647 3.647 0 0 0-1.827.733c-4.872 3.112-9.424 6.7-13.966 10.272a4.783 4.783 0 0 0-1.4 1.473 3.176 3.176 0 0 0 .055 2.694 8.557 8.557 0 0 0 1.625 2.247 68.311 68.311 0 0 0 6.782 6.46s27.543 24.169 30.261 25.219a2.41 2.41 0 0 0 1.226.1 2.016 2.016 0 0 1-.381-.1z" transform="translate(-80.062 -159.327)" style="opacity:.2;mix-blend-mode:overlay;fill:#dfe4f2;isolation:isolate"/>
            <path data-name="Path 12554" d="m147.847 216.417 10.926 8.727a1.7 1.7 0 0 1 .536 1.916c-.1.274-.23.609-.394 1.018-.956 2.385-10.9 14.345-14.19 13.26-2.6-.858-11.279-7.956-11.279-7.956L116.3 218.167c-2.395-2.574-5.675-4.582-7.636-7.565a1.491 1.491 0 0 1-.117-1.571 4.282 4.282 0 0 1 1.061-1.281 121.8 121.8 0 0 1 12.938-9.734 2.515 2.515 0 0 1 3.2.214l10.915 8.77" transform="translate(-90.803 -168.463)" style="fill:#dfe4f2"/>
            <path data-name="Path 12555" d="M135.253 204.439c4.574 3.67 13.572 10.354 14.271 10.991a4.253 4.253 0 0 1 1.52 4.277c-.44 1.826-2.333 4.165-5.465 7.345-4.309 4.375-9.055 9.153-11.643 8.156-2.718-1.05-30.261-25.219-30.261-25.219a68.312 68.312 0 0 1-6.782-6.46 8.557 8.557 0 0 1-1.625-2.247 3.176 3.176 0 0 1-.055-2.694 4.785 4.785 0 0 1 1.4-1.473c4.542-3.576 9.094-7.16 13.966-10.272a3.646 3.646 0 0 1 1.827-.733 3.5 3.5 0 0 1 1.913.757c.94.627 15.182 13.022 21.053 17.668" transform="translate(-80.062 -159.327)" style="stroke-width:.979px;stroke:#444c73;stroke-miterlimit:10;fill:none"/>
            <path data-name="Path 12556" d="m145.469 214.445 13.3 10.7a1.7 1.7 0 0 1 .536 1.916c-.1.274-.23.609-.394 1.018-.956 2.385-10.9 14.345-14.19 13.26-2.6-.858-11.279-7.956-11.279-7.956L116.3 218.167c-2.395-2.574-5.675-4.582-7.636-7.565a1.491 1.491 0 0 1-.117-1.571 4.282 4.282 0 0 1 1.061-1.281 121.8 121.8 0 0 1 12.938-9.734 2.515 2.515 0 0 1 3.2.214l10.915 8.77z" transform="translate(-90.803 -168.463)" style="stroke-width:.945px;stroke:#444c73;stroke-miterlimit:10;fill:none"/>
            <path data-name="Path 12557" d="m147.958 217.7-13.687-10.809-10.807-8.607a2.872 2.872 0 0 0-3.57-.221l-.626.427a116.976 116.976 0 0 0-12.454 9.332 4.489 4.489 0 0 0-1.137 1.373 1.759 1.759 0 0 0 .149 1.873 24.37 24.37 0 0 0 4.676 4.794 38.01 38.01 0 0 1 3.046 2.794l17.319 15.244c.359.291 8.822 7.142 11.468 8.007a1.7 1.7 0 0 0 .531.079c3.985 0 13.278-11.366 14.143-13.508.151-.373.286-.718.4-1.025.302-.807.048-1.71-9.451-9.753zm8.9 9.546c-.113.3-.245.642-.394 1.01-.46 1.138-3.214 4.731-6.213 7.837-3.575 3.7-6.466 5.67-7.735 5.253-2.544-.831-11.194-7.834-11.272-7.9l-17.281-15.205a38.58 38.58 0 0 0-3.083-2.829 23.88 23.88 0 0 1-4.578-4.687l-.022-.03a1.2 1.2 0 0 1-.074-1.255 4.032 4.032 0 0 1 1-1.189 116.6 116.6 0 0 1 12.388-9.28l.626-.427a2.272 2.272 0 0 1 2.879.2l10.777 8.583 22.531 18.331a1.394 1.394 0 0 1 .453 1.59z" transform="translate(-88.485 -168.463)" style="fill:#4455b0;isolation:isolate;opacity:.15;mix-blend-mode:multiply"/>
            <g data-name="Group 1401">
                <g data-name="Group 1400">
                    <path data-name="Path 12558" d="M137.638 213.809a.3.3 0 0 1-.173-.548l2.391-1.681a.3.3 0 1 1 .346.493l-2.391 1.681a.3.3 0 0 1-.173.055z" transform="translate(-113.939 -179.635)" style="fill:#444c73"/>
                </g>
                <path data-name="Path 12559" d="M133.341 223.112a.3.3 0 0 0-.077-.133l-.061-.047a.3.3 0 0 0-.152-.041h-.082a.31.31 0 0 0-.3.3l.011.08a.3.3 0 0 0 .078.133l.061.047a.3.3 0 0 0 .152.041h.082a.336.336 0 0 0 .213-.088.336.336 0 0 0 .088-.213z" transform="translate(-110.208 -188.716)" style="fill:#444c73"/>
            </g>
            <path data-name="Path 12560" d="M172.79 227.444c.163-.41.291-.745.393-1.02a1.709 1.709 0 0 0-.534-1.92l-12.391-9.827-9.638-8.363-10.473-9.176c-1.353-1.024-2.427-.591-3.59.174-2.443 1.608-5.173 3.57-7.787 5.544.009-.005-3.15 2.458-3.021 2.386 1.312-.741 11.591-7.086 14.045-5.588 2.711 1.654 31 24.943 32 26.367.97 1.379-9 11.542-13.618 14.517a4.477 4.477 0 0 0 .481.2c3.27 1.085 13.181-10.904 14.133-13.294z" transform="translate(-104.677 -167.657)" style="fill:#6676de;isolation:isolate;opacity:.15;mix-blend-mode:multiply"/>
            <path data-name="Path 12561" d="m160.958 244.947 3.945-3.4a6.31 6.31 0 0 1 1.86-1.247c2.167-.8 5.211 1.844 6.807 3.017 2.262 1.662 4.349 3.532 6.531 5.288 1.319 1.061 2.75 1.983 4 3.118a2.22 2.22 0 0 1 .733 1.006c.209.786-.991 1.735-1.457 2.271a61.057 61.057 0 0 1-6.449 6.4c-1.209 1.028-2.75 2.452-4.05 3.37-1.09.769-1.679 1.816-3.03.885-1.426-.983-14.213-12.02-14.988-12.749a1.661 1.661 0 0 1 0-2.684c1.928-1.643 4.182-3.622 6.098-5.275z" transform="translate(-127.4 -202.512)" style="stroke-width:.728px;stroke-linecap:round;stroke:#444c73;stroke-miterlimit:10;fill:none"/>
            <path data-name="Path 12562" d="m160.958 244.947 3.945-3.4a6.31 6.31 0 0 1 1.86-1.247c2.167-.8 5.211 1.844 6.807 3.017 2.262 1.662 4.349 3.532 6.531 5.288 1.319 1.061 2.75 1.983 4 3.118a2.22 2.22 0 0 1 .733 1.006c.209.786-.991 1.735-1.457 2.271a61.057 61.057 0 0 1-6.449 6.4c-1.209 1.028-2.75 2.452-4.05 3.37-1.09.769-1.679 1.816-3.03.885-1.426-.983-14.213-12.02-14.988-12.749a1.661 1.661 0 0 1 0-2.684c1.928-1.643 4.182-3.622 6.098-5.275z" transform="translate(-127.4 -202.512)" style="opacity:.64;fill:#6775e1"/>
            <g data-name="Group 1405">
                <g data-name="Group 1404">
                    <g data-name="Group 1402">
                        <path data-name="Path 12563" d="M258.746 346a.973.973 0 0 1-.64-.391 1.089 1.089 0 0 1 .011-1.4l8.625-8.387a.821.821 0 0 1 1.235.193 1.088 1.088 0 0 1-.011 1.4l-8.625 8.387a.713.713 0 0 1-.595.198z" transform="translate(-210.238 -278.786)" style="stroke-width:.447px;fill:#6775e1;stroke-linecap:round;stroke:#444c73;stroke-miterlimit:10"/>
                    </g>
                    <g data-name="Group 1403">
                        <path data-name="Path 12564" d="M252.767 344.367a.21.21 0 0 1-.138-.084.235.235 0 0 1 0-.3l7.67-7.459a.177.177 0 0 1 .267.041.235.235 0 0 1 0 .3l-7.671 7.459a.153.153 0 0 1-.128.043z" transform="translate(-206.018 -279.474)" style="stroke-width:.447px;fill:#6775e1;stroke-linecap:round;stroke:#444c73;stroke-miterlimit:10"/>
                    </g>
                </g>
                <path data-name="Path 12565" d="M308.63 313.291c-.572.137-.536.809-.485 1.124a.1.1 0 0 1-.116.124c-.287-.063-.9-.118-1.038.505-.4 1.829 2.169 1.293 2.6 1.192a.1.1 0 0 0 .074-.079c.098-.465.645-3.267-1.035-2.866z" transform="translate(-249.464 -260.917)" style="stroke-width:.481px;fill:#6775e1;stroke-linecap:round;stroke:#444c73;stroke-miterlimit:10"/>
            </g>
            <g data-name="Group 1409">
                <g data-name="Group 1408">
                    <g data-name="Group 1406">
                        <path data-name="Path 12566" d="M141.086 242.014a1.391 1.391 0 0 1-.854-.466 1.135 1.135 0 0 1-.02-1.619l11.179-9.456a1.2 1.2 0 0 1 1.635.252 1.135 1.135 0 0 1 .02 1.619l-11.178 9.456a1 1 0 0 1-.782.214z" transform="translate(-115.976 -194.597)" style="stroke-width:.551px;fill:#6775e1;stroke-linecap:round;stroke:#444c73;stroke-miterlimit:10"/>
                    </g>
                    <g data-name="Group 1407">
                        <path data-name="Path 12567" d="M133 239.831a.3.3 0 0 1-.184-.1.245.245 0 0 1 0-.349l9.941-8.409a.258.258 0 0 1 .353.054.245.245 0 0 1 0 .349l-9.941 8.409a.216.216 0 0 1-.169.046z" transform="translate(-110.266 -195.136)" style="stroke-width:.551px;fill:#6775e1;stroke-linecap:round;stroke:#444c73;stroke-miterlimit:10"/>
                    </g>
                </g>
            </g>
        </g>
        <path data-name="Path 12568" d="M205.659 298.673c-.041.473.561.682.935.975a1.364 1.364 0 0 1-.247 2.192c-.914.431-1.955-.29-2.966-.283a12.437 12.437 0 0 0-2.068.5 3.13 3.13 0 0 1-2.417-.574c-1.289-.974-1.828-2.941-3.391-3.348-.55-.143-1.145-.056-1.682-.241a2.007 2.007 0 0 1-1.086-2.569 2.538 2.538 0 0 1 2.512-1.477s4.215 3.275 6.22 3.569a19.27 19.27 0 0 1 4.19 1.256z" transform="translate(-158.1 -245.409)" style="stroke-width:.447px;fill:#6775e1;stroke-linecap:round;stroke:#444c73;stroke-miterlimit:10"/>
        <g data-name="Group 1417">
            <path data-name="Path 12569" d="M249.122 161.049c.15-.28 1.062-3.987 1.374-4.15.756-.4 2.648 1.135 2.707 1.713.055.542-1.53 4.444-1.746 5.139l-1.607.807z" transform="translate(-203.259 -135.936)" style="fill:#fff"/>
            <path data-name="Path 12570" d="M203.277 207.838s-.929-.839-.9-1.345a33.88 33.88 0 0 0 2.707-6.493 8.006 8.006 0 0 0 .1-4.151 13.633 13.633 0 0 1-.4-3.705 13.283 13.283 0 0 0-.79-3.683l-.334-1.68s-.419-2.348.508-2.7a1.075 1.075 0 0 1 1.363.468l.743.885.721 2.18.925 1.432s3.74-6 4-6.473c.008-.014.955 1.836.955 1.836s1.949-1.038 2.8.528c.5.924.272 1.238.272 1.238a9.366 9.366 0 0 1 2.524 1.784 2.972 2.972 0 0 1 .452 1.143s3.165 1.049 3.887 1.838a11.825 11.825 0 0 1 .193 1.45 9.442 9.442 0 0 1-.489 3.267 17.8 17.8 0 0 1-1.437 3.047l-.542 1.138a13.208 13.208 0 0 1-.886 1.572l-.63.959-1.184 1.541-2.631 3.036a19.464 19.464 0 0 0-2.117 3.913c-.243 1.139-.421 1.219-.768 1.136s-5.381-1.587-6.656-2.546" transform="translate(-165.907 -156.501)" style="fill:#fff"/>
            <g data-name="Group 1411">
                <path data-name="Path 12571" d="M203.461 198.754c-.175 1.943.972 3.922 1.127 5.867.055.682-.024 1.37.035 2.052.062.712.273 1.4.388 2.108a13.648 13.648 0 0 1 .034 3.593 25.839 25.839 0 0 1-2.839 7.049c-.109.153 0 .3.107.453 2.056 3 9.89 5.322 10.152 5a4.848 4.848 0 0 0 .556-1.373 15.272 15.272 0 0 1 .736-1.629 27.658 27.658 0 0 1 3.831-5.05 23.277 23.277 0 0 0 2.885-4.338 34.536 34.536 0 0 0 1.594-3.1 12.019 12.019 0 0 0 .767-5.1c-.061-.854-3.264-1.838-4-2.2s-1.3-.307-1.728.258-2.4 2.2-2.15 2.812.587.631 1.675.589 2.171-1.541 2.171-1.541" transform="translate(-165.736 -169.431)" style="stroke-width:.694px;stroke-linecap:round;stroke:#444c73;stroke-miterlimit:10;fill:none"/>
                <path data-name="Path 12572" d="M208.531 190.034a1.145 1.145 0 0 0-.5 1.044c.015.4.38 1.5.707 1.616a1.044 1.044 0 0 0 .589 0 .92.92 0 0 0 .469-.228 1.011 1.011 0 0 0 .208-.674 6.125 6.125 0 0 0-.028-.865c-.037-.357.061-.48-.168-.755a1.009 1.009 0 0 0-1.277-.138z" transform="translate(-170.428 -162.331)" style="stroke-width:.694px;stroke-linecap:round;stroke:#444c73;stroke-miterlimit:10;fill:none"/>
                <path data-name="Path 12573" d="M216.877 191.372a3.981 3.981 0 0 1 .978 1.092 11.063 11.063 0 0 1 .6 1.881 10.742 10.742 0 0 0 1.937 2.917 13.068 13.068 0 0 1 2.893 9.738" transform="translate(-177.494 -163.533)" style="stroke-width:.694px;stroke-linecap:round;stroke:#444c73;stroke-miterlimit:10;fill:none"/>
            </g>
            <g data-name="Group 1412">
                <path data-name="Path 12574" d="M223.009 225.073a5.268 5.268 0 0 0-.2-1.178c-.023-.026-.05-.051-.078-.078a16.978 16.978 0 0 1-5.631 9.869c-1.5 1.28-3.286 2.37-4.147 4.143-.529 1.09-.718 2.442-1.7 3.156a2.771 2.771 0 0 1-2.65.192 5.984 5.984 0 0 1-2.154-1.711 4.656 4.656 0 0 0-1.983-1.665 2.261 2.261 0 0 0-1.242 0 15.674 15.674 0 0 1-.842 1.658c-.012.507.9 1.331.9 1.331l2.377 1.615c1.275.958 6.308 2.463 6.656 2.546s.524 0 .768-1.136a19.464 19.464 0 0 1 2.117-3.913l2.631-3.036 1.184-1.541.63-.959a13.21 13.21 0 0 0 .886-1.572l.542-1.138a17.8 17.8 0 0 0 1.437-3.047 11.907 11.907 0 0 0 .499-3.536z" transform="translate(-165.916 -189.457)" style="fill:#4c5fce;isolation:isolate;opacity:.15;mix-blend-mode:multiply"/>
                <path data-name="Path 12575" d="M202.378 301.61v-.014c0-.005-.003.014 0 .014z" transform="translate(-165.908 -251.604)" style="fill:#4c5fce;isolation:isolate;opacity:.15;mix-blend-mode:multiply"/>
            </g>
            <path data-name="Path 12576" d="M233.611 203.095a9.83 9.83 0 0 1 .272 4.333 23.848 23.848 0 0 0 1.228-8.817 6.265 6.265 0 0 0-.552-2.289 8.335 8.335 0 0 0-.692-1.1c-.651-.924-1.1-2.591-1.747-3.514a32.9 32.9 0 0 1-2.188 4.637c.042.381 1.224 1.532 1.432 1.842a14.43 14.43 0 0 1 2.247 4.908z" transform="translate(-187.926 -163.802)" style="fill:#4c5fce;isolation:isolate;opacity:.15;mix-blend-mode:multiply"/>
            <path data-name="Path 12577" d="M208.365 165.113a23.9 23.9 0 0 0 3.359 7.1c2.055 2.782 1.666 2.673 1.666 2.673s4.531 6.417 6.277 7.162c-.047.06.365.506.747.4a11.1 11.1 0 0 0 1.8-1.8l1.26-1.293-.931-1.094a3.917 3.917 0 0 1-1.508.381c-.56-.059-.742-.008-1-.375s.044-.841.272-1.17 1.119-1.266 1.119-1.266-.788-1.223-.831-1.219a6.384 6.384 0 0 1-1.1.532 3.575 3.575 0 0 1-2.2.059.814.814 0 0 1-.459-.971 5.017 5.017 0 0 1 .55-1.221 3.4 3.4 0 0 1-.775-.455 1.21 1.21 0 0 1 .038-1.52 6.106 6.106 0 0 1 1-.81 17.221 17.221 0 0 1-1.706-4.841c-.023-.228-4.592.882-6.177-.563a4.77 4.77 0 0 1-.917.243z" transform="translate(-170.693 -142.316)" style="fill:#6676de"/>
            <path data-name="Path 12578" d="M248.886 161.783c.15-.28 1-3.935 1.307-4.1.756-.4 2.876.643 2.935 1.221.055.542-1.59 4.565-1.805 5.26" transform="translate(-203.07 -136.545)" style="stroke-width:.694px;stroke-linecap:round;stroke:#444c73;stroke-miterlimit:10;fill:none"/>
            <path data-name="Path 12579" d="M304.257 54.787s-.651-.093-.924 1.23a66.956 66.956 0 0 0-.725 12.063c.172 1.786.347 8.512 1.326 10.761a.756.756 0 0 0 .729.548c1.889.153 1.82-8.218 1.82-8.218l-.236-8.732q-.005-.586-.062-1.169c-.094-.974-.125-2.991-.177-3.356-.07-.497-.289-3.121-1.751-3.127z" transform="translate(-245.934 -54.398)" style="fill:#5362b7"/>
            <path data-name="Path 12580" d="M208.365 164.946a49.453 49.453 0 0 0 3.473 7.225c1.159 1.912 1.612 2.564 1.612 2.564s4.392 6.135 6.148 7.15c.094.012.574.514.921.389a9.751 9.751 0 0 0 1.581-1.635l1.307-1.413-.816-1.075a5.167 5.167 0 0 1-1.629.328c-.559-.059-.638.037-.894-.33a1.02 1.02 0 0 1 .186-1.147c.229-.329 1.171-1.341 1.171-1.341s-.788-1.223-.831-1.219a8.318 8.318 0 0 1-1.167.539 2.944 2.944 0 0 1-1.981.142 1.2 1.2 0 0 1-.616-1.169 3.47 3.47 0 0 1 .609-1.076 3.157 3.157 0 0 1-.764-.442 1.137 1.137 0 0 1-.1-1.474 8.614 8.614 0 0 1 1.08-.906 15.234 15.234 0 0 1-1.88-4.823c-.023-.228-4.378.821-5.962-.623a5.4 5.4 0 0 1-1.026.293c-.257.097-.205.086-.422.043z" transform="translate(-170.693 -142.149)" style="fill:#6676de"/>
            <path data-name="Path 12581" d="m249.539 65.391.518 5.9.86 5.6a12.376 12.376 0 0 1 4.593.785c2.34.905 4.68 2.083 6.813 1.58.026-.013-.762.155-1.1-2.032a56.876 56.876 0 0 1-.957-9.636c.145-2.84.033-6.282.2-7.2s.444-4.013.5-4.335.25-1.253.893-1.4a3.6 3.6 0 0 0-1.973 1.274c-1.07 1.668-2.621 4.52-4.1 5.787a40.153 40.153 0 0 1-3.9 2.774z" transform="translate(-203.592 -54.261)" style="fill:#6676de"/>
            <path data-name="Path 12582" d="M214.739 109.071s-7.1.57-6.857 5.189c.277 5.247 1.5 6.1 2.068 6.33a10.185 10.185 0 0 0 3.648.442 12.652 12.652 0 0 0 2.573-.45s-1.141-6.9-1.2-7.476-.232-4.035-.232-4.035z" transform="translate(-170.302 -97.772)" style="fill:#e69784"/>
            <path data-name="Path 12583" d="M242.6 105.186s-.923-.021-.637 2.629c.289 2.666 1.4 9.63 1.4 9.63s.082.544.776.476c1.038-.1.388-2.561.388-2.561l-1.085-9.594s-.136-.808-.842-.58z" transform="translate(-197.495 -94.636)" style="fill:#4c5fce"/>
            <path data-name="Path 12584" d="M213.621 111.267a4.55 4.55 0 0 1 1.233-.071c-.059-1.051-.114-2.125-.114-2.125s-7.1.633-6.857 5.189c.033.635.087 1.2.147 1.717a.223.223 0 0 0 .443-.014v-.024a5.026 5.026 0 0 1 1.085-2.946 6.578 6.578 0 0 1 4.063-1.726z" transform="translate(-170.303 -97.772)" style="opacity:.2;mix-blend-mode:overlay;fill:#dfe4f2;isolation:isolate"/>
            <path data-name="Path 12585" d="M306.794 54.79h-.007c.287.917.625 2.031.8 2.716.329 1.326.5 17.852-.471 18.958-.459.524-.976-.253-1.405-1.214a14.684 14.684 0 0 0 .766 3.595.756.756 0 0 0 .729.548c1.889.153 1.82-8.218 1.82-8.218l-.236-8.732q-.005-.586-.062-1.169c-.094-.974-.125-2.991-.177-3.356-.076-.498-.296-3.118-1.757-3.128z" transform="translate(-248.471 -54.4)" style="fill:#4c5fce;isolation:isolate;opacity:.15;mix-blend-mode:multiply"/>
            <path data-name="Path 12586" d="M256.394 165.248c2.316-.3 4.75.86 6.932 1.69a8.181 8.181 0 0 0 4.68.65" transform="translate(-209.069 -142.62)" style="stroke-width:.694px;stroke-linecap:round;stroke:#444c73;stroke-miterlimit:10;fill:none"/>
            <path data-name="Path 12587" d="M261.718 54.826a3.221 3.221 0 0 0-2.107 1.2 18.283 18.283 0 0 0-1.285 2.189 15.892 15.892 0 0 1-9.189 7.372" transform="translate(-203.27 -54.43)" style="stroke-width:.694px;stroke-linecap:round;stroke:#444c73;stroke-miterlimit:10;fill:none"/>
            <path data-name="Path 12588" d="M216.193 120.582a11.752 11.752 0 0 1-4.138.436c-1.025-.092-2.376-.305-3.013-1.218a4.5 4.5 0 0 1-.59-1.4 16.619 16.619 0 0 1-.546-3.938 4.41 4.41 0 0 1 .634-2.489c1.26-2.044 4.133-2.82 6.222-2.9" transform="translate(-170.325 -97.772)" style="stroke-width:.694px;stroke-linecap:round;stroke:#444c73;stroke-miterlimit:10;fill:none"/>
            <path data-name="Path 12589" d="M200.329 129.266c-.977.272-2.079.625-2.085 1.261a7.437 7.437 0 0 0 .3 1.878l.666 2.648c.173.687.465 1.5 1.157 1.643a1.933 1.933 0 0 0 1.25-.32" transform="translate(-162.605 -113.909)" style="stroke-width:.694px;stroke-linecap:round;stroke:#444c73;stroke-miterlimit:10;fill:none"/>
            <path data-name="Path 12590" d="m194.887 145.788-.743.184a.5.5 0 0 1-.747-.411l-.344-1.116a1.306 1.306 0 0 1-.072-.8c.076-.221.93-.616 1.161-.651" transform="translate(-158.37 -124.878)" style="stroke-width:.694px;stroke-linecap:round;stroke:#444c73;stroke-miterlimit:10;fill:none"/>
            <path data-name="Path 12591" d="m255.195 203.931-.712-1.135a.177.177 0 0 0-.274-.039 3.748 3.748 0 0 1-2.258.731c-.907-.082-1.541-.476-1.249-1.489a3.474 3.474 0 0 1 2.337-1.927c1.7-.591 4.516 2.2 4.432 2.947" transform="translate(-204.463 -170.419)" style="stroke-width:.694px;stroke-linecap:round;stroke:#444c73;stroke-miterlimit:10;fill:none"/>
            <path data-name="Path 12592" d="M283.06 224.338a6.737 6.737 0 0 0 1.186.683" transform="translate(-230.376 -189.873)" style="stroke-width:.694px;stroke-linecap:round;stroke:#444c73;stroke-miterlimit:10;fill:none"/>
            <path data-name="Path 12593" d="M252.241 192.335a2.085 2.085 0 0 0-.594-1.646 1.708 1.708 0 0 0-1.184-.4 2.944 2.944 0 0 0-.826.115 2.889 2.889 0 0 0-.466.172 2.465 2.465 0 0 0-.728.5 2.878 2.878 0 0 0-.453.573c-.737 1.276 1.011 1.7 1.011 1.7" transform="translate(-202.211 -162.663)" style="stroke-width:.694px;stroke-linecap:round;stroke:#444c73;stroke-miterlimit:10;fill:none"/>
            <path data-name="Path 12594" d="M250.225 190.857a2.107 2.107 0 0 1 .455.6.447.447 0 0 1 .029.27.347.347 0 0 1-.018.057.61.61 0 0 1-.16.19 9.838 9.838 0 0 1-1.207.873.137.137 0 0 1-.1-.04c-.209-.166-.438-.523-.65-.708a.294.294 0 0 0-.034-.03" transform="translate(-202.797 -163.121)" style="stroke-width:.694px;stroke-linecap:round;stroke:#444c73;stroke-miterlimit:10;fill:none"/>
            <path data-name="Path 12595" d="M267.579 223.649a1.9 1.9 0 0 1 .5.481.19.19 0 0 1 .035.069.193.193 0 0 1-.03.122 2.45 2.45 0 0 1-1.073 1.07" transform="translate(-217.55 -189.322)" style="stroke-width:.694px;stroke-linecap:round;stroke:#444c73;stroke-miterlimit:10;fill:none"/>
            <path data-name="Path 12596" d="M246 167.13s.8 3.811 1.725 4.94" transform="translate(-200.765 -144.163)" style="stroke-width:.694px;stroke-linecap:round;stroke:#444c73;stroke-miterlimit:10;fill:none"/>
            <path data-name="Path 12597" d="M229.923 211.9c-.238.5-.258.658-.345.549" transform="translate(-187.643 -179.935)" style="stroke-width:.694px;stroke-linecap:round;stroke:#444c73;stroke-miterlimit:10;fill:none"/>
            <path data-name="Path 12598" d="m252.348 202.6.858.9 1.571-1s-.5-1.007-.9-1.055" transform="translate(-205.836 -171.584)" style="stroke-width:.694px;stroke-linecap:round;stroke:#444c73;stroke-miterlimit:10;fill:none"/>
            <path data-name="Path 12599" d="M303.192 103.914s4.425-.512 4.8 3.14c.467 4.574-4.6 4.037-4.6 4.037z" transform="translate(-246.462 -93.632)" style="fill:#e69784"/>
            <path data-name="Path 12600" d="M308.617 113.69a3.455 3.455 0 0 0-.484-1.5 7.986 7.986 0 0 1-.222 2.255 2.645 2.645 0 0 1-1.567 1.465 4.807 4.807 0 0 1-2.366.261l.043 1.551s5.063.542 4.596-4.032z" transform="translate(-247.089 -100.269)" style="fill:#dd4e2a;isolation:isolate;opacity:.15;mix-blend-mode:multiply"/>
            <path data-name="Path 12601" d="M302.865 103.825a4.67 4.67 0 0 1 4.222 1.343 4.107 4.107 0 0 1 .067 4.36c-.868 1.294-2.356 1.353-3.9 1.537" transform="translate(-246.201 -93.515)" style="stroke-width:.694px;stroke-linecap:round;stroke:#444c73;stroke-miterlimit:10;fill:none"/>
            <path data-name="Path 12602" d="m254.28 150.714.425 2.765a12.378 12.378 0 0 1 4.593.785c2.34.905 4.68 2.083 6.813 1.58.026-.013-.762.155-1.1-2.032l-.184-1.177a4.931 4.931 0 0 1-1.821.031c-1.808-.3-3.352-1.481-5.12-1.962a6.927 6.927 0 0 0-3.606.01z" transform="translate(-207.38 -130.852)" style="fill:#4c5fce;isolation:isolate;opacity:.15;mix-blend-mode:multiply"/>
            <path data-name="Path 12603" d="M306.588 65.655c-.307-7.538-.417-10.817-2.01-10.829a.949.949 0 0 0-.81.458 2.5 2.5 0 0 0-.272.939 66.733 66.733 0 0 0 .366 21.76 2.576 2.576 0 0 0 .324.982.9.9 0 0 0 .881.432 1.131 1.131 0 0 0 .771-.821c.7-2.375.648-5.193.869-7.692" transform="translate(-246.13 -54.429)" style="stroke-width:.694px;stroke-linecap:round;stroke:#444c73;stroke-miterlimit:10;fill:none"/>
            <path data-name="Path 12604" d="M259.878 55.926c-1.07 1.668-2.621 4.52-4.1 5.787a40.153 40.153 0 0 1-3.9 2.774l-2.336.9.35 3.991a3.113 3.113 0 0 0 3.1-.844c1.141-1.274.977-3.365 2.161-4.6 1.1-1.149 3.07-1.215 4.013-2.5.809-1.1.533-2.636.879-3.959a4.242 4.242 0 0 1 1-1.811c.113-.4.344-.911.807-1.018a3.6 3.6 0 0 0-1.974 1.28z" transform="translate(-203.592 -54.261)" style="opacity:.2;mix-blend-mode:overlay;fill:#dfe4f2;isolation:isolate"/>
            <path data-name="Path 12605" d="M243.346 117.719c.175.484 1.484.473 1.293-.731-.421-2.652-1.01-7.261-1.282-10.536-.038-.463-.042-1.188-.505-1.2a.857.857 0 0 0-.881.434 2.161 2.161 0 0 0-.151 1.051 85.591 85.591 0 0 0 1.526 10.982z" transform="translate(-197.422 -94.72)" style="stroke-width:.694px;stroke-linecap:round;stroke:#444c73;stroke-miterlimit:10;fill:none"/>
            <path data-name="Path 12606" d="M214.382 153.565a5.251 5.251 0 0 1-3.688-1.253 2.973 2.973 0 0 0-.686-.463c.493 2.258 1.233 2.753 1.645 2.922a10.19 10.19 0 0 0 3.648.442 12.653 12.653 0 0 0 2.573-.45l-.4-2.411c-.32.2-.631.421-.962.6a5.018 5.018 0 0 1-2.13.613z" transform="translate(-172.006 -131.953)" style="fill:#dd4e2a;isolation:isolate;opacity:.15;mix-blend-mode:multiply"/>
            <g data-name="Group 1416" style="isolation:isolate;opacity:.15;mix-blend-mode:multiply">
                <path data-name="Path 12608" d="M217.469 166.542a41.8 41.8 0 0 0 1.59 4.587.872.872 0 0 1 .078-.1 6.106 6.106 0 0 1 1-.81 17.221 17.221 0 0 1-1.706-4.841c-.023-.228-4.592.882-6.176-.563a7.422 7.422 0 0 1-.733.217l-.052.063a4.208 4.208 0 0 0 3.375 1.71 17.283 17.283 0 0 0 2.624-.263z" transform="translate(-173.176 -142.316)" style="fill:#4c5fce"/>
                <path data-name="Path 12609" d="M261.045 216.017c.229-.329 1.119-1.266 1.119-1.266s-.788-1.223-.831-1.219a6.382 6.382 0 0 1-1.1.532 5.086 5.086 0 0 1-.883.181 22.057 22.057 0 0 0 1.439 2.19 3.107 3.107 0 0 1 .256-.418z" transform="translate(-211.433 -181.238)" style="fill:#4c5fce"/>
                <path data-name="Path 12610" d="m273.6 232.783-.931-1.094a3.916 3.916 0 0 1-1.508.381l-.057-.005a12.015 12.015 0 0 0 1 .985 1.284 1.284 0 0 0 .938.306z" transform="translate(-220.824 -195.746)" style="fill:#4c5fce"/>
            </g>
            <path data-name="Path 12611" d="M225.856 194.977c-.346-.064-.74.12-1.038-.067-.342-.214-.281-.714-.267-1.118a1.657 1.657 0 0 0-.872-1.631 4.421 4.421 0 0 0-.932-.163 2.428 2.428 0 0 1-1.619-1.072 6.415 6.415 0 0 1-.534-3.215 9.82 9.82 0 0 0-.505-2.673 4.459 4.459 0 0 0-.646-1.3 4.12 4.12 0 0 0-2.559-1.394 5.785 5.785 0 0 0-1.856-.05 2.3 2.3 0 0 0-.3.049 25.44 25.44 0 0 0 2.028 3.7c1.844 2.925 1.719 2.758 1.719 2.758s4.606 6.215 6.277 7.162c-.047.06.365.506.747.4a4.007 4.007 0 0 0 .967-.859.865.865 0 0 0-.61-.527z" transform="translate(-175.776 -156.236)" style="opacity:.2;mix-blend-mode:overlay;fill:#dfe4f2;isolation:isolate"/>
            <path data-name="Path 12612" d="M208.834 166.237c.886 5.061 8.964 15.618 11.255 16.993a27.841 27.841 0 0 1 3.2-3.335" transform="translate(-171.068 -143.449)" style="stroke-width:.694px;stroke-linecap:round;stroke:#444c73;stroke-miterlimit:10;fill:none"/>
        </g>
    </g>
</svg>
