<svg data-name="svgexport-10 (14)" xmlns="http://www.w3.org/2000/svg" width="20.805" height="18.725" viewBox="0 0 20.805 18.725">
    <path data-name="Path 12654" d="M19.765 3.121h-4.508V1.734A1.736 1.736 0 0 0 13.524 0H7.282a1.736 1.736 0 0 0-1.734 1.734v1.387H1.04A1.04 1.04 0 0 0 0 4.161v7.719a1.045 1.045 0 0 0 .694.979v4.826a1.04 1.04 0 0 0 1.04 1.04h17.338a1.04 1.04 0 0 0 1.04-1.04v-4.826a1.045 1.045 0 0 0 .694-.979V4.161a1.04 1.04 0 0 0-1.04-1.04zM6.242 1.734a1.04 1.04 0 0 1 1.04-1.04h6.242a1.04 1.04 0 0 1 1.04 1.04v1.387h-.694V1.734a.347.347 0 0 0-.347-.347H7.282a.347.347 0 0 0-.347.347v1.387h-.693zm6.935 1.387H7.629v-1.04h5.548zm6.242 14.564a.347.347 0 0 1-.347.347H1.734a.347.347 0 0 1-.347-.347v-4.707l7.629 1.052v.88a1.04 1.04 0 0 0 1.04 1.04h.694a1.04 1.04 0 0 0 1.04-1.04v-.88l7.629-1.052zM11.1 14.911a.347.347 0 0 1-.347.347h-.694a.347.347 0 0 1-.347-.347V12.83a.347.347 0 0 1 .347-.347h.694a.347.347 0 0 1 .347.347zm9.016-3.031a.347.347 0 0 1-.3.344l-.1.013-7.926 1.093v-.5a1.04 1.04 0 0 0-1.04-1.04h-.694a1.04 1.04 0 0 0-1.04 1.04v.5L.992 12.224a.347.347 0 0 1-.3-.344V4.161a.347.347 0 0 1 .347-.347h18.726a.347.347 0 0 1 .347.347zm0 0" style="fill:#515151"/>
</svg>
