<svg xmlns="http://www.w3.org/2000/svg" width="104.531" height="109.538" viewBox="0 0 104.531 109.538">
    <g data-name="Group 1350" transform="translate(-520.734 -458.954)">
        <ellipse data-name="Ellipse 132" cx="52.266" cy="52.237" rx="52.266" ry="52.237" transform="translate(520.734 458.954)" style="fill:#d9ffff;opacity:.45"/>
        <path data-name="Path 12432" d="m1184.8 1131.911 12.064 15.861c1.5 6.179-1.891 11.736-8.271 13.2l-28.051-12.858z" transform="translate(-598.885 -629.916)" style="fill:#ffa04f"/>
        <path data-name="Path 12433" d="m1606.5 1355 15.457 4.034c1.665 5.011-.733 15.285-5.662 18.744l-17.184-7.986L1606.5 1355z" transform="translate(-1009.408 -838.74)" style="fill:#ffa04f"/>
        <path data-name="Path 12434" d="M960.672 856.2s-34.932-26.365-38.018-21.234c-3.535 5.876 33.357 28.563 33.357 28.563z" transform="translate(-375.99 -351.343)" style="fill:#ffa04f"/>
        <g data-name="Group 1345">
            <g data-name="Group 1327">
                <g data-name="Group 1326">
                    <path data-name="Path 12435" d="m1084.1 724.074-25.161-.152a2.925 2.925 0 0 1-2.837-2.989l.095-54.4a2.842 2.842 0 0 1 2.792-2.872l24.672-.075a2.862 2.862 0 0 1 2.834 2.868l.447 54.648a2.879 2.879 0 0 1-2.842 2.972z" transform="translate(-501.125 -191.548)" style="fill:#8fc9ed"/>
                    <path data-name="Path 12436" d="M1090.661 728.986a2.4 2.4 0 0 1-.318.019l-25.153-.178a2.552 2.552 0 0 1-2.45-2.615l.087-54.336a2.479 2.479 0 0 1 2.411-2.514l24.67-.1h.116a2.4 2.4 0 0 1 1.635.745 2.518 2.518 0 0 1 .695 1.73l.441 54.7a2.5 2.5 0 0 1-2.134 2.549z" transform="translate(-507.341 -196.856)" style="fill:#33201b"/>
                    <path data-name="Path 12437" d="m1103.737 712.295.424 54.513-28.336-.159.072-54.354z" transform="translate(-519.589 -237.138)" style="fill:#fff"/>
                </g>
            </g>
            <g data-name="Group 1328">
                <path data-name="Path 12438" d="M1104.382 839.634a.037.037 0 0 0 0-.005v.005z" transform="translate(-546.319 -356.327)" style="fill:none"/>
                <path data-name="Path 12439" d="M1331.712 759.519h-4.412l.341 5.109h4.87z" transform="translate(-754.98 -281.341)" style="fill:#ffded9"/>
                <path data-name="Path 12440" d="m1322.7 711.927.294 3.044h4.411l-.747-3.044z" transform="translate(-750.677 -236.793)" style="fill:#ffded9"/>
                <path data-name="Path 12441" d="M1261.053 759.519h-4.409l-.118 5.114h4.868z" transform="translate(-688.733 -281.341)" style="fill:#ff3305"/>
                <path data-name="Path 12442" d="m1258.529 711.927-.158 3.044h4.409l-.294-3.044z" transform="translate(-690.459 -236.793)" style="fill:#ff3305"/>
                <path data-name="Path 12443" d="m1384.592 711.927.747 3.044h4.413l-1.2-3.044z" transform="translate(-808.607 -236.793)" style="fill:#ff3305"/>
                <path data-name="Path 12444" d="M1400.68 759.519h-4.413l.8 5.1h4.871z" transform="translate(-819.535 -281.341)" style="fill:#ff3305"/>
                <path data-name="Path 12445" d="m1446.5 711.927 1.2 3.044h4.631l-1.621-3.044z" transform="translate(-866.555 -236.793)" style="fill:#ffded9"/>
                <path data-name="Path 12446" d="M1469.894 759.519h-4.63l1.258 5.1 5.026-.005z" transform="translate(-884.119 -281.341)" style="fill:#ffded9"/>
                <path data-name="Path 12447" d="m1052.047 711.927-1.569 3.044h4.485l1.059-3.044z" transform="translate(-495.862 -236.793)" style="fill:#ffded9"/>
                <path data-name="Path 12448" d="m1027.263 759.519-1.586 5.129 5.034-.005 1.038-5.124z" transform="translate(-472.648 -281.341)" style="fill:#ffded9"/>
                <path data-name="Path 12449" d="m1181.024 759.519-.577 5.119h4.866l.118-5.114z" transform="translate(-617.519 -281.341)" style="fill:#ffded9"/>
                <path data-name="Path 12450" d="m1190.081 711.927-.609 3.044h4.407l.158-3.044z" transform="translate(-625.967 -236.793)" style="fill:#ffded9"/>
                <path data-name="Path 12451" d="m1105.42 759.519-1.038 5.124h4.865l.577-5.119z" transform="translate(-546.32 -281.341)" style="fill:#ff3305"/>
                <path data-name="Path 12452" d="m1121.666 711.927-1.059 3.044h4.4l.609-3.044z" transform="translate(-561.506 -236.793)" style="fill:#ff3305"/>
                <path data-name="Path 12453" d="m1030.712 839.716-5.034.005v-.014.759a2.506 2.506 0 0 0 2.543 2.468 2.421 2.421 0 0 0 2.493-2.41z" transform="translate(-472.647 -356.4)" style="fill:#ffc9c0"/>
                <path data-name="Path 12454" d="m1109.247 839.257-4.863.005v-.014.759a2.462 2.462 0 0 0 2.457 2.468 2.376 2.376 0 0 0 2.408-2.41z" transform="translate(-546.319 -355.971)" style="fill:#ed2f05"/>
                <path data-name="Path 12455" d="m1185.312 839.257-4.863.005v-.014.759a2.462 2.462 0 0 0 2.457 2.468 2.376 2.376 0 0 0 2.408-2.41z" transform="translate(-617.519 -355.971)" style="fill:#ffc9c0"/>
                <path data-name="Path 12456" d="m1261.415 839.257-4.863.005v-.014.759a2.462 2.462 0 0 0 2.457 2.468 2.377 2.377 0 0 0 2.408-2.41z" transform="translate(-688.755 -355.971)" style="fill:#ed2f05"/>
                <path data-name="Path 12457" d="m1337.519 839.257-4.863.005a.116.116 0 0 1 0-.014v.759a2.462 2.462 0 0 0 2.457 2.468 2.376 2.376 0 0 0 2.408-2.41z" transform="translate(-759.991 -355.971)" style="fill:#ffc9c0"/>
                <path data-name="Path 12458" d="m1413.584 839.257-4.863.005v-.014.759a2.462 2.462 0 0 0 2.457 2.468 2.376 2.376 0 0 0 2.408-2.41z" transform="translate(-831.191 -355.971)" style="fill:#ed2f05"/>
                <path data-name="Path 12459" d="M1489.892 838.872h-5.029a.144.144 0 0 1 0-.014v.759a2.5 2.5 0 0 0 2.54 2.468 2.419 2.419 0 0 0 2.49-2.41z" transform="translate(-902.463 -355.61)" style="fill:#ffc9c0"/>
                <path data-name="Path 12460" d="M1030.662 839.716v-.009h-4.986v.014z" transform="translate(-472.647 -356.4)" style="fill:#fbd2cb"/>
                <path data-name="Path 12461" d="M1103.636 839.716h.049a.077.077 0 0 0 0-.009h-.048z" transform="translate(-545.621 -356.4)" style="fill:#f13005"/>
                <path data-name="Path 12462" d="M1104.392 839.707a.09.09 0 0 0 0 .009v-.009z" transform="translate(-546.329 -356.4)" style="fill:#f13005"/>
            </g>
            <g data-name="Group 1344">
                <g data-name="Group 1335">
                    <g data-name="Group 1333">
                        <path data-name="Path 12463" d="m1133.7 934.979-10.219-.033v-10.437l10.219.044z" transform="translate(-564.201 -435.779)" style="fill:#04f2f5"/>
                        <g data-name="Group 1332">
                            <g data-name="Group 1329">
                                <path data-name="Path 12464" d="M1181.992 943.878a1.839 1.839 0 0 1-.089-.425h-.114a1.585 1.585 0 0 1-.051.341.674.674 0 0 1-.572.539.682.682 0 0 1-.572-.544 1.618 1.618 0 0 1-.051-.342h-.114a1.835 1.835 0 0 1-.089.424 2.224 2.224 0 0 1-.546.848l.182 1.711h2.382l.182-1.709a2.251 2.251 0 0 1-.548-.843z" transform="translate(-616.906 -453.506)" style="fill:#0486f5"/>
                                <path data-name="Path 12465" d="M1165.041 994.585c-.507.52-4.68.558-5.311-.018a12.467 12.467 0 0 1 1.465-4.474l2.383.009a13.107 13.107 0 0 1 1.463 4.483z" transform="translate(-598.127 -497.169)" style="fill:#0486f5"/>
                            </g>
                            <path data-name="Path 12466" d="M1183.24 989.294a2.185 2.185 0 0 1-1.441-.434.037.037 0 0 1 0-.051.035.035 0 0 1 .05 0 2.16 2.16 0 0 0 1.393.415c.833 0 .948-.34.949-.343a.035.035 0 0 1 .044-.024.037.037 0 0 1 .024.045c0 .016-.124.4-1.017.395z" transform="translate(-618.774 -495.955)" style="fill:#fff"/>
                            <g data-name="Group 1330">
                                <path data-name="Path 12467" d="M1201.236 995.262a.1.1 0 0 1-.077-.044c-.174-.218.26-.629.31-.675l.078-.072-.019.105c-.027.151-.128.646-.271.683zm.2-.584c-.135.144-.312.38-.221.494.007.009.017.019.025.017.06-.015.14-.259.195-.51z" transform="translate(-636.868 -501.267)" style="fill:#fff"/>
                            </g>
                            <g data-name="Group 1331">
                                <path data-name="Path 12468" d="M1206.4 984.953v-.089c0-.022.014-.533.211-.7a.22.22 0 0 1 .18-.055.127.127 0 0 1 .116.083c.061.187-.361.618-.447.7zm.361-.777a.15.15 0 0 0-.1.04.965.965 0 0 0-.18.556c.178-.188.395-.461.363-.56 0-.007-.009-.027-.058-.034z" transform="translate(-641.811 -491.562)" style="fill:#fff"/>
                            </g>
                            <path data-name="Path 12469" d="M1207.142 996.1a.035.035 0 0 1-.032-.021 1.115 1.115 0 0 0-.652-.563.037.037 0 0 1-.025-.044.036.036 0 0 1 .043-.026 1.171 1.171 0 0 1 .7.6.037.037 0 0 1-.016.048.036.036 0 0 1-.018.006z" transform="translate(-641.841 -502.181)" style="fill:#fff"/>
                        </g>
                    </g>
                    <g data-name="Group 1334">
                        <path data-name="Path 12470" d="m1306.881 1036.928.189.582h.612l-.5.36.189.582-.5-.36-.5.36.189-.582-.5-.36h.612z" transform="translate(-735.117 -541.008)" style="fill:#fdf280"/>
                        <path data-name="Path 12471" d="m1345.41 1036.928.189.582h.612l-.5.36.189.582-.5-.36-.5.36.189-.582-.5-.36h.612z" transform="translate(-771.182 -541.008)" style="fill:#fdf280"/>
                        <path data-name="Path 12472" d="m1381.257 1036.928.189.582h.612l-.5.36.189.582-.5-.36-.5.36.189-.582-.5-.36h.612z" transform="translate(-804.736 -541.008)" style="fill:#fdf280"/>
                        <path data-name="Rectangle 2641" style="fill:#04f2f5" d="M0 0h8.219v.759H0z" transform="translate(570.963 488.73)"/>
                        <path data-name="Rectangle 2642" transform="translate(570.963 490.378)" style="fill:#04f2f5" d="M0 0h7.439v.759H0z"/>
                        <path data-name="Rectangle 2643" transform="translate(570.963 492.025)" style="fill:#04f2f5" d="M0 0h7.744v.759H0z"/>
                        <path data-name="Rectangle 2644" transform="translate(570.963 493.673)" style="fill:#04f2f5" d="M0 0h5.568v.759H0z"/>
                    </g>
                </g>
                <g data-name="Group 1339">
                    <g data-name="Group 1337">
                        <path data-name="Path 12473" d="m1132.56 1150.216-10.219-.018v-10.437l10.219.029z" transform="translate(-563.129 -637.264)" style="fill:#04f2f5"/>
                        <g data-name="Group 1336">
                            <path data-name="Path 12474" d="M1159.036 1192.167c-.052-1.05-2.4-1.711-2.4-1.711s-2.15-2.366-3.049-3.552c-1.53.6-1.9 1.337-1.667 2.625.746-.633 2.018.531 3.564 2.631z" transform="translate(-590.757 -681.392)" style="fill:#0486f5"/>
                            <path data-name="Path 12475" d="m1152.83 1222.72.51 2.738h.246c.068-1.232.222-2.628 1.037-2.181 0-1.099-1.793-1.103-1.793-.557z" transform="translate(-591.668 -714.583)" style="fill:#0486f5"/>
                        </g>
                    </g>
                    <g data-name="Group 1338">
                        <path data-name="Path 12476" d="m1306.881 1253.613.189.582h.612l-.5.36.189.582-.5-.36-.5.36.189-.582-.5-.36h.612z" transform="translate(-735.116 -743.834)" style="fill:#fdf280"/>
                        <path data-name="Path 12477" d="m1345.41 1253.613.189.582h.612l-.5.36.189.582-.5-.36-.5.36.189-.582-.5-.36h.612z" transform="translate(-771.181 -743.834)" style="fill:#fdf280"/>
                        <path data-name="Path 12478" d="m1381.257 1253.613.189.582h.612l-.5.36.189.582-.5-.36-.5.36.189-.582-.5-.36h.612z" transform="translate(-804.735 -743.834)" style="fill:#fdf280"/>
                        <path data-name="Rectangle 2645" style="fill:#04f2f5" d="M0 0h8.219v.759H0z" transform="translate(570.964 502.589)"/>
                        <path data-name="Rectangle 2646" transform="translate(570.964 504.237)" style="fill:#04f2f5" d="M0 0h8.219v.759H0z"/>
                        <path data-name="Rectangle 2647" transform="translate(570.964 505.884)" style="fill:#04f2f5" d="M0 0h3.649v.759H0z"/>
                        <path data-name="Rectangle 2648" transform="translate(570.964 507.532)" style="fill:#04f2f5" d="M0 0h5.568v.759H0z"/>
                    </g>
                </g>
                <g data-name="Group 1343">
                    <g data-name="Group 1340">
                        <path data-name="Path 12479" d="m1132.56 1363.044-10.219-.018v-10.437l10.219.029z" transform="translate(-563.129 -836.48)" style="fill:#04f2f5"/>
                    </g>
                    <g data-name="Group 1341">
                        <path data-name="Path 12480" d="m1306.881 1466.44.189.582h.612l-.5.36.189.582-.5-.36-.5.36.189-.582-.5-.36h.612z" transform="translate(-735.116 -943.049)" style="fill:#fdf280"/>
                        <path data-name="Path 12481" d="m1345.41 1466.44.189.582h.612l-.5.36.189.582-.5-.36-.5.36.189-.582-.5-.36h.612z" transform="translate(-771.181 -943.049)" style="fill:#fdf280"/>
                        <path data-name="Path 12482" d="m1381.257 1466.44.189.582h.612l-.5.36.189.582-.5-.36-.5.36.189-.582-.5-.36h.612z" transform="translate(-804.735 -943.049)" style="fill:#fdf280"/>
                        <path data-name="Rectangle 2649" style="fill:#04f2f5" d="M0 0h8.219v.759H0z" transform="translate(570.964 516.201)"/>
                        <path data-name="Rectangle 2650" transform="translate(570.964 517.849)" style="fill:#04f2f5" d="M0 0h6.082v.759H0z"/>
                        <path data-name="Rectangle 2651" transform="translate(570.964 519.496)" style="fill:#04f2f5" d="M0 0h7.744v.759H0z"/>
                        <path data-name="Rectangle 2652" transform="translate(570.964 521.144)" style="fill:#04f2f5" d="M0 0h5.568v.759H0z"/>
                    </g>
                    <g data-name="Group 1342">
                        <path data-name="Path 12483" d="M1157.321 1403.98c-.9.772-5.548.77-6.309 0a9.159 9.159 0 0 1 .422-3.961 13.426 13.426 0 0 1 5.465.005 8.651 8.651 0 0 1 .422 3.956z" transform="translate(-589.918 -880.612)" style="fill:#0486f5"/>
                        <path data-name="Path 12484" d="M1158.363 1399.908a2.763 2.763 0 0 0 2.894 2.212 2.332 2.332 0 0 0 2.572-2.207 13.129 13.129 0 0 0-5.466-.005z" transform="translate(-596.848 -880.505)" style="fill:#04b6f5"/>
                        <path data-name="Path 12485" d="M1197.454 1430.247a.25.25 0 0 1-.247-.252v-.914a.25.25 0 0 1 .247-.252.251.251 0 0 1 .247.252v.914a.25.25 0 0 1-.247.252z" transform="translate(-633.207 -907.843)" style="fill:#fff"/>
                    </g>
                </g>
            </g>
        </g>
        <path data-name="Path 12486" d="M1434.192 963.287c-5.393-9.123-16.338-26.433-16.338-26.433s-2.412-.486-2.569 3.918 4.812 12.249 4.812 12.249-2.01 21.311 8.974 21.327c7.629.011 8.15-7.378 5.121-11.061z" transform="translate(-837.334 -447.32)" style="fill:#ffa04f"/>
        <path data-name="Path 12487" d="M993.155 1014.523s-7.454 2.976-2.736 8.968 7.151 0 4.392-4.849a20.945 20.945 0 0 1-1.656-4.119z" transform="translate(-438.18 -520.036)" style="fill:#ffa04f"/>
        <path data-name="Path 12488" d="M993.155 1120.129s-7.454 2.976-2.736 8.968 7.151 0 4.392-4.849a20.948 20.948 0 0 1-1.656-4.119z" transform="translate(-438.18 -618.888)" style="fill:#ffa04f"/>
        <path data-name="Path 12489" d="M1004.443 1305.878s-5.815 2.322-2.135 7 5.579 0 3.427-3.783a16.34 16.34 0 0 1-1.292-3.217z" transform="translate(-449.631 -792.756)" style="fill:#ffa04f"/>
        <g data-name="Group 1349">
            <g data-name="Group 1347">
                <g data-name="Group 1346">
                    <path data-name="Path 12490" d="M814.87 1574.255c-.49 2.493-10.016 16.461-10.016 16.461-12.668-1.312 1.744-18.249 1.744-18.249s-6.844-6.128-3.2-8.4c2.656-1.662 5.186-.245 6.357.641.161.121.3.232.4.324.181.157.279.258.279.258s4.925 6.471 4.436 8.965z" transform="translate(-261.07 -1033.71)" style="fill:#ffa04f"/>
                </g>
                <path data-name="Path 12491" d="M569.738 1910.43c-7.051 1.643-17.138-3.627-17.714-7.6l5.4-9.919 16.668 2.909z" transform="translate(-29.289 -1342.247)" style="fill:#ffa04f"/>
            </g>
            <g data-name="Group 1348">
                <path data-name="Path 12492" d="M975.011 980.667a15.474 15.474 0 1 0 10.77 19.048 15.474 15.474 0 0 0-10.77-19.048zm-7.781 28.03a13.615 13.615 0 1 1 16.764-9.478 13.616 13.616 0 0 1-16.765 9.481z" transform="translate(-406.861 -487.814)" style="fill:#33201b"/>
                <path data-name="Path 12493" d="M889.94 1463.126c-1.256 2.054-5.555-.547-4.551-2.416l8.94-16.6 4.551 2.415z" transform="translate(-341.191 -922.15)" style="fill:#33201b"/>
                <path data-name="Rectangle 2653" transform="rotate(28 -763.585 1375.587)" style="fill:#33201b" d="M0 0h3.145v10.821H0z"/>
            </g>
            <path data-name="Path 12494" d="m643.778 1474.212-4.552 18.071-15.718-2.939s-1.465-15.3-.3-18.235a15.283 15.283 0 0 1 3.4-5.006c2.017-1.919 3.321-1.076 4.332-1.654 2.308-1.318 2.934-2.875 3.574-3.308a4.7 4.7 0 0 1 5.139.264s3.363-4.776 5.46-3.117-1.335 15.924-1.335 15.924z" transform="translate(-95.498 -935.091)" style="fill:#ffa04f"/>
            <path data-name="Path 12495" d="M929.317 1684.637s-.934 1.918-2.543 2.04-1.613 5.811-1.613 5.811a9.418 9.418 0 0 0 4.156-7.851z" transform="translate(-378.56 -1147.291)" style="fill:#ffa04f"/>
        </g>
    </g>
</svg>
