<svg xmlns="http://www.w3.org/2000/svg" width="21.219" height="19.199" viewBox="0 0 21.219 19.199">
    <g data-name="svgexport-6 (86)">
        <g data-name="Layer 14">
            <path data-name="Path 12659" d="m46.24 47.733-.483.483-1.167-1.167h.965z" transform="translate(-29.672 -32.299)" style="fill:#515151"/>
            <path data-name="Path 12660" d="M47.107 47.733a2.053 2.053 0 0 1-2.053 2.053H43V49.1h2.053a1.367 1.367 0 0 0 1.184-2.053h.75a1.985 1.985 0 0 1 .12.684z" transform="translate(-28.626 -32.299)" style="fill:#515151"/>
            <path data-name="Path 12661" d="m43.781 42.025-2.2-2.2 2.2-2.2.484.484-1.711 1.721 1.711 1.711z" transform="translate(-27.696 -26.107)" style="fill:#515151"/>
            <path data-name="Path 12662" d="M5.711 40.933v.616L4 40.865v-.616z" transform="translate(-2.973 -27.826)" style="fill:#515151"/>
            <path data-name="Path 12663" d="M5.711 37.833v.616L4 37.765v-.616z" transform="translate(-2.973 -25.787)" style="fill:#515151"/>
            <path data-name="Path 12664" d="M11.64 22.51 1 17.9V9.939l11.273-5.988 9.946 3.907v7.951l-1.79 1.133-.366-.579 1.472-.931V8.325L12.316 4.7 1.684 10.351v7.1l9.895 4.288L13.7 20.4l.366.578z" transform="translate(-1 -3.951)" style="fill:#515151"/>
            <path data-name="Path 12665" d="M11.61 33.712a.345.345 0 0 1-.137-.028l-10.268-4.45A.342.342 0 0 1 1 28.92v-7.529a.342.342 0 0 1 .47-.318l10.267 4.107a.342.342 0 0 1 .215.318v7.872a.342.342 0 0 1-.342.342zM1.684 28.7l9.583 4.152v-7.123L1.684 21.9z" transform="translate(-1 -15.197)" style="fill:#515151"/>
            <path data-name="Path 12666" d="M31.342 29.766a.342.342 0 0 1-.342-.343v-7.871a.342.342 0 0 1 .166-.293L41.433 15.1a.342.342 0 0 1 .518.293v7.529a.342.342 0 0 1-.159.289l-1.631 1.032-.366-.579 1.472-.931V16l-9.583 5.75v7.05l1.749-1.1.366.578-2.274 1.437a.342.342 0 0 1-.183.054z" transform="translate(-20.733 -11.251)" style="fill:#515151"/>
            <path data-name="Path 12667" d="M16.053 29.945a.342.342 0 0 1-.127-.024l-1.711-.684a.342.342 0 0 1-.215-.319v-2.327a.342.342 0 0 1 .47-.318l1.711.684a.342.342 0 0 1 .215.318V29.6a.342.342 0 0 1-.342.342zm-1.369-1.258 1.027.411v-1.59l-1.027-.408z" transform="translate(-9.551 -18.617)" style="fill:#515151"/>
            <path data-name="Path 12668" d="M16.053 15.681a.342.342 0 0 1-.127-.024l-1.711-.684a.342.342 0 0 1-.053-.609l10.03-6.213a.342.342 0 0 1 .3-.028l1.728.68a.342.342 0 0 1 .049.607l-10.036 6.22a.342.342 0 0 1-.18.051zm-.953-1.093.921.368 9.317-5.769-.929-.364z" transform="translate(-9.55 -6.68)" style="fill:#515151"/>
            <path data-name="Path 12669" d="M39.449 42.947A4.449 4.449 0 1 1 43.9 38.5a4.449 4.449 0 0 1-4.451 4.447zm0-8.214a3.765 3.765 0 1 0 3.765 3.767 3.765 3.765 0 0 0-3.765-3.767z" transform="translate(-23.364 -23.748)" style="fill:#515151"/>
            <path data-name="Path 12670" d="M45.053 47.156H43v-.684h2.053a1.369 1.369 0 0 0 0-2.738H43v-.684h2.053a2.053 2.053 0 1 1 0 4.107z" transform="translate(-28.626 -29.668)" style="fill:#515151"/>
        </g>
    </g>
</svg>
