<svg xmlns="http://www.w3.org/2000/svg" width="147.795" height="42.76" viewBox="0 0 147.795 42.76">
    <path data-name="Path 1" d="M21.379 42.76A21.395 21.395 0 0 1 .7 15.941h10.67v6.64s.925 9.929 10.409 9.929 10.41-10.41 10.41-10.41H26.1c0 4.052-4.324 4.324-4.324 4.324-4.824 0-4.164-6.086-4.164-6.086v-4.4h3.868l.057-6.172h-3.921V.33a21.382 21.382 0 1 1 3.763 42.43zM32.32 10.535a.761.761 0 0 0-.761-.761h-4.806a.761.761 0 0 0-.761.761v3.537a.761.761 0 0 0 .761.761h4.806a.761.761 0 0 0 .761-.761zm0 6.205a.761.761 0 0 0-.761-.761h-4.806a.761.761 0 0 0-.761.761v3.537a.761.761 0 0 0 .761.761h4.806a.761.761 0 0 0 .761-.761z" style="fill-rule:evenodd;fill:#4a9e73"/>
    <path data-name="Path 2" d="m980.267 235.007-.747.841-1.15-.948.937-1.113.984.841.747-.877 1.162.995-.949 1.066zm-1.055 4.217h.095a5.95 5.95 0 0 0 1.292-.118 13.319 13.319 0 0 0-.344-2.594l1.719-.367a11.081 11.081 0 0 1 .237 2.357 7.246 7.246 0 0 1-.284 2.239 4.964 4.964 0 0 1-1.186.415 6.343 6.343 0 0 1-1.47.178h-3.154a2.657 2.657 0 0 1-1.541-.4 4.176 4.176 0 0 1-1.85.415 4.7 4.7 0 0 1-2.347-.509 1.94 1.94 0 0 1-1.316.5h-3.391a2.181 2.181 0 0 1-1.856-.728 3.414 3.414 0 0 1-.551-2.091V232.9l1.85-.154v5.366q0 1.114 1 1.113h3.083a.764.764 0 0 0 .231-.036.51.51 0 0 0 .208-.13q.095-.095.166-.178a1.513 1.513 0 0 0 .16-.243q.089-.16.142-.266t.154-.314q.1-.207.148-.314a4.473 4.473 0 0 1 1-1.35 2.2 2.2 0 0 1 1.494-.474 1.887 1.887 0 0 1 1.446.6 3.388 3.388 0 0 1 .783 1.6 2.076 2.076 0 0 0 .35.894 1.033 1.033 0 0 0 .753.207h2.988zm-5.821-1.06a.6.6 0 0 0-.557-.349.875.875 0 0 0-.652.267 5.307 5.307 0 0 0-.711 1.155 5.268 5.268 0 0 0 1.47.189 2.991 2.991 0 0 0 .83-.095 5.058 5.058 0 0 0-.381-1.167zm-12.473 2.659a10.8 10.8 0 0 1-1.364.083q-.5 0-.96-.012t-.753-.03q-.291-.018-.35-.018c-.055 0-.083.02-.083.059q0 .568.107 2.677l-1.731.118q-.107-2.263-.107-3.174a1.874 1.874 0 0 1 .3-1.09 1.2 1.2 0 0 1 .9-.509 3.611 3.611 0 0 1 .877-2.381 2.623 2.623 0 0 1 2.028-.924 2.351 2.351 0 0 1 1.755.675 2.571 2.571 0 0 1 .664 1.883 6.765 6.765 0 0 1-.427 2.44 2.636 2.636 0 0 1-.857.203zm-.569-3.038a.909.909 0 0 0-.711-.29 1.016 1.016 0 0 0-.806.4 2.033 2.033 0 0 0-.415 1.084q1.245.036 1.328.036.617 0 .854-.012.012-.13.012-.344a1.269 1.269 0 0 0-.263-.874z" transform="translate(-834.416 -203.213)" style="fill:#515151;fill-rule:evenodd"/>
    <path data-name="Path 3" d="M526.574 87.6a10.377 10.377 0 0 1-1.434.1 7.575 7.575 0 0 1-1.273-.1 2.168 2.168 0 0 1-.951-.386 1.855 1.855 0 0 1-.6-.789 3.407 3.407 0 0 1-.209-1.3v-7.7a1.682 1.682 0 0 0-.548-1.4 2.322 2.322 0 0 0-1.483-.435 2.581 2.581 0 0 0-.967.209 2.8 2.8 0 0 0-.773.435 1.012 1.012 0 0 1 .032.241v10.934a9.046 9.046 0 0 1-1.047.193 10.139 10.139 0 0 1-1.4.1 7.576 7.576 0 0 1-1.273-.1 2.166 2.166 0 0 1-.951-.386 1.854 1.854 0 0 1-.6-.789 3.4 3.4 0 0 1-.21-1.3v-7.7a1.617 1.617 0 0 0-.6-1.4 2.369 2.369 0 0 0-1.434-.435 2.561 2.561 0 0 0-1 .177 7.549 7.549 0 0 0-.709.338v11.3a7.489 7.489 0 0 1-1.015.193 10.376 10.376 0 0 1-1.434.1 7.577 7.577 0 0 1-1.273-.1 2.168 2.168 0 0 1-.951-.386 1.856 1.856 0 0 1-.6-.789 3.406 3.406 0 0 1-.21-1.3V75.4a2.324 2.324 0 0 1 .371-1.384 4.187 4.187 0 0 1 1.015-.966 9.275 9.275 0 0 1 2.723-1.256 11.885 11.885 0 0 1 3.4-.483 9.258 9.258 0 0 1 2.594.37 6.389 6.389 0 0 1 2.208 1.111 9.546 9.546 0 0 1 2.175-1.063 8.968 8.968 0 0 1 2.917-.418 9.071 9.071 0 0 1 2.4.322 6.14 6.14 0 0 1 2.095 1.014 4.911 4.911 0 0 1 1.466 1.835 6.41 6.41 0 0 1 .548 2.785v10.142a7.492 7.492 0 0 1-.999.191zm-25.863-.9a7.863 7.863 0 0 1-2.14.853l-3.6-3.594a7.47 7.47 0 0 0 1.046-.109 2.949 2.949 0 0 0 .983-.306v-2.575l-2.32.193a3.579 3.579 0 0 0-1.483.386 1.04 1.04 0 0 0-.58.966 1.317 1.317 0 0 0 .156.64 2.184 2.184 0 0 0-1.128.6l-1.569 1.568a2.19 2.19 0 0 0-.637 1.383l-.061-.038a4.429 4.429 0 0 1-1.515-1.642 4.856 4.856 0 0 1-.532-2.318 4.358 4.358 0 0 1 1.321-3.413 7.133 7.133 0 0 1 4.093-1.481l4.222-.451v-.225a1.38 1.38 0 0 0-.822-1.336 5.539 5.539 0 0 0-2.369-.4 10.98 10.98 0 0 0-2.385.258 12.713 12.713 0 0 0-2.095.644 2.227 2.227 0 0 1-.709-.885 2.8 2.8 0 0 1-.29-1.24 2.064 2.064 0 0 1 .4-1.336 3.122 3.122 0 0 1 1.241-.853 9.718 9.718 0 0 1 2.208-.515 19.221 19.221 0 0 1 2.4-.161 13.251 13.251 0 0 1 3.175.354 7.11 7.11 0 0 1 2.449 1.079 4.87 4.87 0 0 1 1.563 1.835 5.871 5.871 0 0 1 .548 2.624v7.212a2 2 0 0 1-.467 1.368 4.658 4.658 0 0 1-1.103.915zm-16.436 1a7.576 7.576 0 0 1-1.275-.1 2.167 2.167 0 0 1-.951-.386 1.855 1.855 0 0 1-.6-.789 3.406 3.406 0 0 1-.209-1.3v-7.7a1.682 1.682 0 0 0-.548-1.4 2.322 2.322 0 0 0-1.483-.435 2.581 2.581 0 0 0-.967.209 2.79 2.79 0 0 0-.773.435 1.013 1.013 0 0 1 .032.241v10.934a9.043 9.043 0 0 1-1.047.193 10.138 10.138 0 0 1-1.4.1 7.577 7.577 0 0 1-1.273-.1 2.168 2.168 0 0 1-.951-.386 1.856 1.856 0 0 1-.6-.789 3.406 3.406 0 0 1-.209-1.3v-7.7a1.616 1.616 0 0 0-.6-1.4 2.369 2.369 0 0 0-1.421-.435 2.562 2.562 0 0 0-1 .177 7.537 7.537 0 0 0-.709.338v11.3a7.492 7.492 0 0 1-1.015.193 10.376 10.376 0 0 1-1.434.1 7.577 7.577 0 0 1-1.273-.1 2.167 2.167 0 0 1-.951-.386 1.855 1.855 0 0 1-.6-.789 3.406 3.406 0 0 1-.209-1.3V75.4a2.323 2.323 0 0 1 .371-1.384 4.189 4.189 0 0 1 1.015-.966 9.275 9.275 0 0 1 2.723-1.256 11.884 11.884 0 0 1 3.4-.483 9.257 9.257 0 0 1 2.594.37 6.389 6.389 0 0 1 2.208 1.111 9.547 9.547 0 0 1 2.175-1.063 8.968 8.968 0 0 1 2.917-.418 9.072 9.072 0 0 1 2.4.322 6.14 6.14 0 0 1 2.095 1.014 4.911 4.911 0 0 1 1.466 1.835 6.409 6.409 0 0 1 .548 2.785v10.142a7.485 7.485 0 0 1-1.015.193 10.378 10.378 0 0 1-1.432.098zm-24.429-1a11.526 11.526 0 0 1-5.9 1.256 13.5 13.5 0 0 1-3.078-.322 7.292 7.292 0 0 1-2.353-.966A4.43 4.43 0 0 1 447 85.026a4.856 4.856 0 0 1-.532-2.318 4.358 4.358 0 0 1 1.321-3.413 7.133 7.133 0 0 1 4.093-1.481l4.222-.451v-.225a1.38 1.38 0 0 0-.822-1.336 5.539 5.539 0 0 0-2.369-.4 10.98 10.98 0 0 0-2.385.258 12.71 12.71 0 0 0-2.095.644 2.226 2.226 0 0 1-.709-.885 2.8 2.8 0 0 1-.29-1.24 2.064 2.064 0 0 1 .4-1.336 3.121 3.121 0 0 1 1.241-.853 9.716 9.716 0 0 1 2.208-.515 19.219 19.219 0 0 1 2.4-.161 13.251 13.251 0 0 1 3.175.354 7.111 7.111 0 0 1 2.449 1.079 4.871 4.871 0 0 1 1.563 1.835 5.872 5.872 0 0 1 .548 2.624v7.212a2 2 0 0 1-.467 1.368 4.658 4.658 0 0 1-1.106.914zm-3.706-5.731-2.32.193a3.579 3.579 0 0 0-1.483.386 1.04 1.04 0 0 0-.58.966 1.28 1.28 0 0 0 .5 1.046 2.734 2.734 0 0 0 1.692.4 7.2 7.2 0 0 0 1.209-.113 2.949 2.949 0 0 0 .983-.306zM444.73 77.2h-2.93v4.862a1.324 1.324 0 0 0 .532 1.191 2.687 2.687 0 0 0 1.5.354 6.46 6.46 0 0 0 1-.08 5.584 5.584 0 0 0 .9-.209 3.96 3.96 0 0 1 .5.789 2.394 2.394 0 0 1 .209 1.046 2.488 2.488 0 0 1-.919 2 5.128 5.128 0 0 1-3.239.773 6.6 6.6 0 0 1-4.367-1.288 5.182 5.182 0 0 1-1.531-4.186V68.67q.354-.1 1.015-.209a8.358 8.358 0 0 1 1.4-.113 4.128 4.128 0 0 1 2.208.5 2.331 2.331 0 0 1 .79 2.109v2.061h4.222a5.527 5.527 0 0 1 .371.886 3.7 3.7 0 0 1 .177 1.175 2.232 2.232 0 0 1-.5 1.626 1.808 1.808 0 0 1-1.338.495z" transform="translate(-381.013 -59.676)" style="fill:#515151;fill-rule:evenodd"/>
    <path data-name="Path 4" d="m501.7 203.715-6.788 6.768a.893.893 0 0 1-1.26.009l-1.562-1.558a.886.886 0 0 1 .009-1.256l6.788-6.768a.892.892 0 0 1 1.259-.009l1.562 1.558a.886.886 0 0 1-.008 1.256zm-4.965-1.771a.9.9 0 0 1-1.264-.01l-3.851-3.838a.889.889 0 0 1-.009-1.26l1.568-1.563a.9.9 0 0 1 1.264.01l3.851 3.838a.889.889 0 0 1 .009 1.26zm-3.9-.878.1.053a2.752 2.752 0 0 1 .479.427l1.694 1.542-1.721 1.492a2.666 2.666 0 0 1-.451.378l-.1.053a.988.988 0 0 1-.3.045h-54.549a.986.986 0 0 1-.987-.984v-2.067a.986.986 0 0 1 .987-.985h54.548a.988.988 0 0 1 .296.046z" transform="translate(-381.551 -170.272)" style="fill-rule:evenodd;fill:#4a9e73"/>
    <path data-name="Path 5" d="M385.127 18a.127.127 0 0 1 .127.127v37.938a.127.127 0 0 1-.254 0V18.127a.127.127 0 0 1 .127-.127z" transform="translate(-336.149 -15.716)" style="fill:#515151;fill-rule:evenodd"/>
</svg>
