<svg xmlns="http://www.w3.org/2000/svg" width="68" height="101.936" viewBox="0 0 68 101.936">
    <g data-name="Group 1243">
        <g data-name="Group 1226">
            <path data-name="Rectangle 2599" transform="translate(28.4 73.484)" style="fill:#4598e6" d="M0 0h7.48v1.385H0z"/>
        </g>
        <g data-name="Group 1227">
            <path data-name="Rectangle 2600" transform="translate(0 86.179)" style="fill:#96bfe6" d="M0 0h43.527v2.682H0z"/>
            <path data-name="Rectangle 2601" transform="translate(0 99.057)" style="fill:#96bfe6" d="M0 0h35.199v2.682H0z"/>
            <path data-name="Rectangle 2602" transform="translate(0 92.618)" style="fill:#96bfe6" d="M0 0h20.635v2.682H0z"/>
        </g>
        <g data-name="Group 1228">
            <path data-name="Path 12276" d="M2044.058 763.9v1.355h7.977v7.486h1.354V763.9zm-54.166 8.841h1.355v-7.486h7.976V763.9h-9.331zm62.142 38.628v7.489h-7.977v1.355h9.331v-8.843zm-60.787 0h-1.355v8.843h9.331v-1.355h-7.976z" transform="translate(-1989.142 -744.687)" style="fill:#4598e6"/>
        </g>
        <g data-name="Group 1231">
            <g data-name="Group 1229">
                <path data-name="Path 12277" d="M2390.5 1290.894a7.977 7.977 0 1 1 7.977-7.977 7.986 7.986 0 0 1-7.977 7.977zm0-14.41a6.433 6.433 0 1 0 6.433 6.433 6.44 6.44 0 0 0-6.433-6.433z" transform="translate(-2330.474 -1188.958)" style="fill:#4598e6"/>
            </g>
            <g data-name="Group 1230">
                <path data-name="Path 12278" d="m2415.568 1321.877-3.624-3.624 1.092-1.092 2.532 2.532 3.55-3.55 1.092 1.091z" transform="translate(-2356.053 -1224.779)" style="fill:#4598e6"/>
            </g>
        </g>
        <g data-name="Group 1242">
            <g data-name="Group 1232">
                <path data-name="Path 12279" d="M2054.175 849.832h-8.947c-.589-4.284-1.312-9.174-1.312-9.174s-.362 4.036-.8 9.174h-35.8a62.853 62.853 0 0 0-.862-8.15c-.206-.1-1.482 4-2.543 8.15h-9.692c2.493-10.738 7.142-27.967 9.83-29 3.826-1.472 19.431-6.281 19.431-6.281h8.9s15.824 4.515 17.3 9.423a173.73 173.73 0 0 1 4.495 25.858z" transform="translate(-1992.899 -783.72)" style="fill:#4a9e73"/>
            </g>
            <g data-name="Group 1233">
                <path data-name="Path 12280" d="M2189.182 592.92s8.314 1.31 7.049 14.319-8.6 11.943-9.1 11.93-7.367.237-7.9-15.647c.001.001-.231-11.745 9.951-10.602z" transform="translate(-2153.745 -590.976)" style="fill:#eea987"/>
            </g>
            <g data-name="Group 1234">
                <path data-name="Path 12281" d="M2211.422 755.641s-.228 5.351.29 6.509-6.861 4.879-11.362.733c0 0 1.087-5.815.785-7.876s10.287.634 10.287.634z" transform="translate(-2172.103 -731.278)" style="fill:#eea987"/>
            </g>
            <g data-name="Group 1235">
                <path data-name="Path 12282" d="M2307.112 672.063s.911-.973 1.245.012-1.412 5.384-1.3 5.581c0 0-.167.382-.385.172s.44-5.765.44-5.765z" transform="translate(-2264.498 -659.474)" style="fill:#eea987"/>
            </g>
            <g data-name="Group 1236">
                <path data-name="Path 12283" d="M2171.345 670.705s-.892-.99-1.245-.012 1.308 5.41 1.19 5.605c0 0 .159.385.381.179s-.326-5.772-.326-5.772z" transform="translate(-2145.764 -658.281)" style="fill:#eea987"/>
            </g>
            <g data-name="Group 1237">
                <path data-name="Path 12284" d="m2189.967 593.141-1.19 1.591a31.74 31.74 0 0 0-.157-4.036c-.191-.547-.483-2.219-.643-2.612s-7.141-2.35-13.306.571c0 0 .271 2.509-.32 2.732s-.3 4.086-.3 4.086l-.979-1.1s-1.5-10.009-1.128-11.052 1.549-7.315 14.2-3.592c0 0 3.944-.835 4.735 1.887s-.912 11.525-.912 11.525z" transform="translate(-2147.357 -578.557)" style="fill:#d98b52"/>
            </g>
            <g data-name="Group 1238">
                <path data-name="Path 12285" d="M2211.683 814.583s1.876.4-5.975 7.924c0 0-5.568-6.159-5.387-7.191s11.362-.733 11.362-.733z" transform="translate(-2172.075 -783.711)" style="fill:#eea987"/>
            </g>
            <g data-name="Group 1239">
                <path data-name="Path 12286" d="m2241.587 815.3 2.143 3.664 6.355-10.791-2.752-1.92z" transform="translate(-2207.954 -776.505)" style="fill:#f2f2f2"/>
            </g>
            <g data-name="Group 1240">
                <path data-name="Path 12287" d="m2187.379 820.451-5.2-8.273-2.948 1.894 5.285 10.042z" transform="translate(-2153.745 -781.656)" style="fill:#f2f2f2"/>
            </g>
            <g data-name="Group 1241">
                <path data-name="Path 12288" d="M2226.839 898.223c.064 1.22.092 2.716.1 4.4h-.294c0-1.674-.032-3.167-.1-4.383-.482-9.178 1.741-20.345 1.756-22.963l.287.057c-.015 2.614-2.231 13.75-1.749 22.889z" transform="translate(-2194.817 -836.508)" style="fill:#b84343"/>
            </g>
            <path data-name="Path 12289" d="M2212.281 780.62a5.536 5.536 0 0 0 4.766 1.532 8.036 8.036 0 0 0 4.029-1.835 5.187 5.187 0 0 1-4.327 3.015 4.594 4.594 0 0 1-4.468-2.712z" transform="translate(-2182.477 -753.957)" style="fill:#c78d71"/>
        </g>
    </g>
</svg>
